<?xml version="1.0" encoding="utf-8"?>
<!-- Generator: Adobe Illustrator 21.0.0, SVG Export Plug-In . SVG Version: 6.00 Build 0)  -->
<svg version="1.1" id="Layer_1" xmlns="http://www.w3.org/2000/svg" xmlns:xlink="http://www.w3.org/1999/xlink" x="0px" y="0px"
	 viewBox="0 0 85 85" style="enable-background:new 0 0 85 85;" xml:space="preserve">
<style type="text/css">
	.st0{fill:#FFD400;}
	.st1{fill:#BCA648;}
	.st2{fill:#FFE164;}
	.st3{fill:#343647;}
</style>
<g>
	<g>
		<path class="st0" d="M57.6,71.2H28.1c-7.9,0-14.1-6.4-14.1-14.1V27.6c0-7.9,6.4-14.1,14.1-14.1h29.4c7.9,0,14.1,6.4,14.1,14.1
			v29.4C71.7,64.8,65.4,71.2,57.6,71.2z"/>
	</g>
	<path class="st1" d="M18.1,13.7l-3.8,2.6L14,69.7l5.2,1.9l49.9-0.1l2.6-3.6H20.9c-1.6,0-2.9-1.3-2.9-2.9V13.8h0.3"/>
	<path class="st2" d="M17.4,13.5h52.2l2.6,2.6v53l-2.4,2.3L67.8,71V21.1c0-2-1.7-3.7-3.7-3.7H14.6v-2.1L17.4,13.5z"/>
	<path class="st3" d="M67.8,70.3c-15,0-30,0-45,0c-1.7,0-4.8,0.5-6.3-0.5c-1.8-1.3-1.3-4.7-1.3-6.7c0-8.9,0-17.9,0-26.9
		c0-4.3,0-8.5,0-12.8c0-1.9-0.1-3.8,0-5.7c0.2-3.5,3.7-3.1,6.2-3.1c3.7,0,7.5,0,11.3,0c9.4,0,18.7,0,28.1,0c2.2,0,4.6-0.1,6.8,0
		c3.3,0.1,3.2,2.9,3.2,5.3c0,15.6,0.2,31.3,0,46.8C70.8,68.7,69.8,70.1,67.8,70.3c-1.4,0.1-1.4,2.2,0,2.1c3-0.1,5.1-2.3,5.2-5.2
		c0-0.6,0-1.4,0-2c0-3.6,0-7.2,0-10.8c0-9.9,0-19.7,0-29.6c0-2.3,0.1-4.7,0-7c-0.1-2.6-1.7-4.8-4.3-5.2c-0.7-0.1-1.5-0.1-2.2-0.1
		c-8.4,0-16.8,0-25.2,0c-7.5,0-15.1-0.1-22.6,0c-3.5,0-5.6,2.6-5.6,6c0,3,0,6,0,8.9c0,9.9,0,19.9,0,29.8c0,3.1,0,6.2,0,9.2
		c0,3.3,1.9,6.1,5.4,6.1c7.4,0.1,14.8,0,22.2,0c8.5,0,17,0,25.6,0c0.5,0,1,0,1.5,0C69.2,72.5,69.2,70.3,67.8,70.3z"/>
	<path class="st3" d="M39.4,42.5c-0.1-3.2-2.7-6-6-6s-5.8,2.8-6,6c-0.1,1.4,2.1,1.4,2.1,0c0.2-4.9,7.4-4.9,7.7,0
		C37.4,43.9,39.5,43.9,39.4,42.5L39.4,42.5z"/>
	<path class="st3" d="M51.9,54.4c-5.7,3.1-12.4,3.1-18.1,0c-1.3-0.6-2.3,1.2-1.1,1.9c6.4,3.4,13.9,3.4,20.3,0
		C54.3,55.7,53.2,53.8,51.9,54.4L51.9,54.4z"/>
	<path class="st3" d="M26.3,34.4c1.9-2,4.4-3.1,7.2-2.7c1.4,0.2,1.9-1.9,0.5-2.1c-3.5-0.5-6.9,0.5-9.4,3.2
		C23.9,33.9,25.4,35.4,26.3,34.4L26.3,34.4z"/>
	<path class="st3" d="M49.4,42.5c0.2-4.9,7.4-4.9,7.7,0c0.1,1.4,2.2,1.4,2.1,0c-0.1-3.2-2.7-6-6-6c-3.3,0-5.8,2.8-6,6
		C47.2,43.9,49.3,43.9,49.4,42.5L49.4,42.5z"/>
	<path class="st3" d="M61.8,32.8c-2.4-2.7-5.7-3.7-9.4-3.2c-1.4,0.2-0.7,2.2,0.5,2.1c2.8-0.4,5.3,0.6,7.2,2.7
		C61.3,35.4,62.8,33.9,61.8,32.8L61.8,32.8z"/>
</g>
</svg>
