<?xml version="1.0" encoding="utf-8"?>
<!-- Generator: Adobe Illustrator 21.0.0, SVG Export Plug-In . SVG Version: 6.00 Build 0)  -->
<svg version="1.1" id="Layer_1" xmlns="http://www.w3.org/2000/svg" xmlns:xlink="http://www.w3.org/1999/xlink" x="0px" y="0px"
	 viewBox="0 0 85 85" style="enable-background:new 0 0 85 85;" xml:space="preserve">
<style type="text/css">
	.st0{fill:#FFFFFF;}
	.st1{fill:#CE671F;}
	.st2{fill:#623915;}
	.st3{fill:#FF9E00;}
	.st4{fill:#FF9D00;}
	.st5{clip-path:url(#SVGID_2_);fill:#FFC500;}
	.st6{clip-path:url(#SVGID_4_);fill:#CE671F;}
	.st7{fill:#FFC500;}
	.st8{clip-path:url(#SVGID_6_);fill:#FF9D00;}
</style>
<g>
	<path class="st0" d="M70,52.1L70,52.1c0.5,0,1-0.4,1-1v-9.6c0-0.5-0.4-1-1-1l0,0c-0.5,0-1,0.4-1,1v9.6C69,51.7,69.4,52.1,70,52.1z"
		/>
	<path class="st1" d="M52.8,57.3h15.7V38.8H52.8c-3,0-5.5,2.5-5.5,5.5v7.6C47.3,54.9,49.8,57.3,52.8,57.3z"/>
	<path class="st2" d="M55.1,55.1h19.3V37.8H55.1c-3,0-5.5,2.5-5.5,5.5v6.3C49.6,52.6,52.1,55.1,55.1,55.1z"/>
	<path class="st3" d="M56.9,53.1h15.9V39.6H56.9c-3.8,0-5.5,1.9-5.5,5.5v2.7C51.4,51.8,52.7,53.1,56.9,53.1z"/>
	<path class="st2" d="M64.2,70.5H20.7c-3.5,0-6.3-2.8-6.3-6.3V20.7c0-3.5,2.8-6.3,6.3-6.3h43.4c3.5,0,6.3,2.8,6.3,6.3v43.4
		C70.5,67.6,67.7,70.5,64.2,70.5z"/>
	<g>
		<path class="st4" d="M64.7,68.4H20.4c-2.2,0-3.9-1.8-3.9-3.9V24.2h48.2c2.2,0,3.9,1.8,3.9,3.9v36.4C68.6,66.8,66.9,68.4,64.7,68.4
			z"/>
		<path class="st2" d="M39,62.6H23.4c-0.5,0-0.9-0.4-0.9-0.9l0,0c0-0.5,0.4-0.9,0.9-0.9H39c0.5,0,0.9,0.4,0.9,0.9l0,0
			C39.9,62.2,39.5,62.6,39,62.6z"/>
		<g>
			<g>
				<defs>
					<path id="SVGID_1_" d="M64.7,68.4H20.4c-2.2,0-3.9-1.8-3.9-3.9V24.2h48.2c2.2,0,3.9,1.8,3.9,3.9v36.4
						C68.6,66.8,66.9,68.4,64.7,68.4z"/>
				</defs>
				<clipPath id="SVGID_2_">
					<use xlink:href="#SVGID_1_"  style="overflow:visible;"/>
				</clipPath>
				<path class="st5" d="M16.1,23.6c0.3-0.1,47.2,0,47.2,0H66l3.3,2.5v40.2l-1.8,3.2l-1.1-2.9V36.7c0-5.7-4.6-10.2-10.2-10.2H16.1
					V23.6z"/>
			</g>
		</g>
		<g>
			<g>
				<defs>
					<path id="SVGID_3_" d="M16.1,24.2c1.6,0,2.9,1.3,2.9,2.3v30c0,5.6,4.5,10.1,10.1,10.1h37.4l5.1,2.9l-55.8,0.4L16.1,24.2z"/>
				</defs>
				<clipPath id="SVGID_4_">
					<use xlink:href="#SVGID_3_"  style="overflow:visible;"/>
				</clipPath>
				<path class="st6" d="M64.7,68.4H20.4c-2.2,0-3.9-1.8-3.9-3.9V24.2h48.2c2.2,0,3.9,1.8,3.9,3.9v36.4
					C68.6,66.8,66.9,68.4,64.7,68.4z"/>
			</g>
		</g>
	</g>
	<g>
		<path class="st7" d="M68.7,24.2l-0.4-0.3c-1.7-1.1-3.5-1.6-5.4-1.6H19.7c-1.7,0-3-1.4-3-3l0,0c0-1.7,1.4-3,3-3h44.8
			c2.9,0,4.3,1.4,4.3,4L68.7,24.2L68.7,24.2z"/>
		<g>
			<g>
				<defs>
					<path id="SVGID_5_" d="M17.1,21.7l0.2,1h47c-1.6-2.3-3-3.7-6.1-3.7H19.9C18.4,18.9,17.1,20.2,17.1,21.7z"/>
				</defs>
				<clipPath id="SVGID_6_">
					<use xlink:href="#SVGID_5_"  style="overflow:visible;"/>
				</clipPath>
				<path class="st8" d="M68.7,24.2l-0.4-0.3c-1.7-1.1-3.5-1.6-5.4-1.6H19.7c-1.7,0-3-1.4-3-3l0,0c0-1.7,1.4-3,3-3h46
					c1.7,0,3,1.4,3,3V24.2z"/>
			</g>
		</g>
	</g>
</g>
</svg>
