<?xml version="1.0" encoding="utf-8"?>
<!-- Generator: Adobe Illustrator 21.0.0, SVG Export Plug-In . SVG Version: 6.00 Build 0)  -->
<svg version="1.1" id="Layer_1" xmlns="http://www.w3.org/2000/svg" xmlns:xlink="http://www.w3.org/1999/xlink" x="0px" y="0px"
	 viewBox="0 0 85 85" style="enable-background:new 0 0 85 85;" xml:space="preserve">
<style type="text/css">
	.st0{fill:#FF9D00;}
	.st1{fill:#B05313;}
	.st2{fill:#FFC500;}
	.st3{fill:#FFE480;}
	.st4{opacity:0.5;fill:#FFE480;enable-background:new    ;}
</style>
<g>
	<path class="st0" d="M51,21.3H17.1c-1.4,0-2.5-1.1-2.5-2.5l0,0c0-1.4,1.1-2.5,2.5-2.5H51c1.4,0,2.5,1.1,2.5,2.5l0,0
		C53.5,20.2,52.4,21.3,51,21.3z"/>
	<path class="st1" d="M51.4,20.5c-4.4,0-8.8,0-13.1,0c-6.5,0-12.8,0-19.3,0c-0.7,0-1.4,0-2.2,0c-0.1,0-0.3,0-0.4,0
		c-1.2-0.1-1.3-1.1-1.2-2.1c0.1-1.2,0.9-1.4,1.9-1.4c0.8,0,1.6,0,2.4,0c6.6,0,13,0,19.6,0c3,0,6,0,9,0c1.1,0,4.2-0.6,4.6,1
		C52.8,19.1,52.7,20.4,51.4,20.5c-0.9,0.1-0.9,1.6,0,1.5c2.3-0.2,3.4-2.6,2.6-4.7c-0.5-1.3-1.7-1.9-3-1.9c-2.2,0-4.4,0-6.7,0
		c-7.4,0-14.8,0-22.2,0c-1.9,0-3.7-0.1-5.6,0c-3.8,0.1-3.8,6.4,0,6.6c5.5,0.2,11.1,0,16.6,0c6,0,12,0.2,17.9,0c0.1,0,0.2,0,0.3,0
		C52.4,22,52.4,20.5,51.4,20.5z"/>
</g>
<g>
	<path class="st0" d="M52.9,26.3H19c-1.4,0-2.5-1.1-2.5-2.5l0,0c0-1.4,1.1-2.5,2.5-2.5h33.9c1.4,0,2.5,1.1,2.5,2.5l0,0
		C55.5,25.2,54.3,26.3,52.9,26.3z"/>
	<path class="st1" d="M53.3,25.4c-4.4,0-8.8,0-13.1,0c-6.5,0-12.8,0-19.3,0c-0.7,0-1.4,0-2.2,0c-0.1,0-0.3,0-0.4,0
		c-1.2-0.1-1.3-1.1-1.2-2.1c0.1-1.2,0.9-1.4,1.9-1.4c0.8,0,1.6,0,2.4,0c6.6,0,13,0,19.6,0c3,0,6,0,9,0c1.1,0,4.2-0.6,4.6,1
		C54.8,24,54.6,25.3,53.3,25.4c-0.9,0.1-0.9,1.6,0,1.5c2.3-0.2,3.4-2.6,2.6-4.7c-0.5-1.3-1.7-1.9-3-1.9c-2.2,0-4.4,0-6.7,0
		c-7.4,0-14.8,0-22.2,0c-1.9,0-3.7-0.1-5.6,0c-3.8,0.1-3.8,6.4,0,6.6c5.5,0.2,11.1,0,16.6,0c6,0,12,0.2,17.9,0c0.1,0,0.2,0,0.3,0
		C54.3,26.9,54.3,25.4,53.3,25.4z"/>
</g>
<g>
	<path class="st0" d="M53.2,31.5h-34c-1.4,0-2.5-1.1-2.5-2.5l0,0c0-1.4,1.1-2.5,2.5-2.5h33.9c1.4,0,2.5,1.1,2.5,2.5l0,0
		C55.7,30.4,54.5,31.5,53.2,31.5z"/>
	<path class="st1" d="M53.6,30.7c-4.4,0-8.8,0-13.1,0c-6.5,0-12.8,0-19.3,0c-0.7,0-1.4,0-2.2,0c-0.1,0-0.3,0-0.4,0
		c-1.2-0.1-1.3-1.1-1.2-2.1c0.1-1.2,0.9-1.4,1.9-1.4c0.8,0,1.6,0,2.4,0c6.6,0,13,0,19.6,0c3,0,6,0,9,0c1.1,0,4.2-0.6,4.6,1
		C55,29.3,54.8,30.6,53.6,30.7c-0.9,0.1-0.9,1.6,0,1.5c2.3-0.2,3.4-2.6,2.6-4.7c-0.5-1.3-1.7-1.9-3-1.9c-2.2,0-4.4,0-6.7,0
		c-7.4,0-14.8,0-22.2,0c-1.9,0-3.7-0.1-5.6,0c-3.8,0.1-3.8,6.4,0,6.6c5.5,0.2,11.1,0,16.6,0c6,0,12,0.2,17.9,0c0.1,0,0.2,0,0.3,0
		C54.5,32.2,54.5,30.7,53.6,30.7z"/>
</g>
<g>
	<path class="st0" d="M51,36.8H17.1c-1.4,0-2.5-1.1-2.5-2.5l0,0c0-1.4,1.1-2.5,2.5-2.5H51c1.4,0,2.5,1.1,2.5,2.5l0,0
		C53.5,35.6,52.4,36.8,51,36.8z"/>
	<path class="st1" d="M51.4,35.9c-4.4,0-8.8,0-13.1,0c-6.5,0-12.8,0-19.3,0c-0.7,0-1.4,0-2.2,0c-0.1,0-0.3,0-0.4,0
		c-1.2-0.2-1.3-1.1-1.3-2.2c0.1-1.2,0.9-1.4,1.9-1.4c0.8,0,1.6,0,2.4,0c6.6,0,13,0,19.6,0c3,0,6,0,9,0c1.1,0,4.2-0.6,4.6,1
		C52.8,34.4,52.7,35.8,51.4,35.9c-0.9,0.1-0.9,1.6,0,1.5c2.3-0.2,3.4-2.6,2.6-4.7c-0.5-1.3-1.7-1.9-3-1.9c-2.2,0-4.4,0-6.7,0
		c-7.4,0-14.8,0-22.2,0c-1.9,0-3.7-0.1-5.6,0c-3.8,0.1-3.8,6.4,0,6.6c5.5,0.2,11.1,0,16.6,0c6,0,12,0.2,17.9,0c0.1,0,0.2,0,0.3,0
		C52.4,37.4,52.4,35.9,51.4,35.9z"/>
</g>
<g>
	<path class="st0" d="M51,41.7H17.1c-1.4,0-2.5-1.1-2.5-2.5l0,0c0-1.4,1.1-2.5,2.5-2.5H51c1.4,0,2.5,1.1,2.5,2.5l0,0
		C53.5,40.6,52.4,41.7,51,41.7z"/>
	<path class="st1" d="M51.4,40.9c-4.4,0-8.8,0-13.1,0c-6.5,0-12.8,0-19.3,0c-0.7,0-1.4,0-2.2,0c-0.1,0-0.3,0-0.4,0
		c-1.2-0.1-1.3-1.1-1.2-2.1c0.1-1.2,0.9-1.4,1.9-1.4c0.8,0,1.6,0,2.4,0c6.6,0,13,0,19.6,0c3,0,6,0,9,0c1.1,0,4.2-0.6,4.6,1
		C52.8,39.5,52.7,40.8,51.4,40.9c-0.9,0.1-0.9,1.6,0,1.5c2.3-0.2,3.4-2.6,2.6-4.7c-0.5-1.3-1.7-1.9-3-1.9c-2.2,0-4.4,0-6.7,0
		c-7.4,0-14.8,0-22.2,0c-1.9,0-3.7-0.1-5.6,0c-3.8,0.1-3.8,6.4,0,6.6c5.5,0.2,11.1,0,16.6,0c6,0,12,0.2,17.9,0c0.1,0,0.2,0,0.3,0
		C52.4,42.4,52.4,40.9,51.4,40.9z"/>
</g>
<g>
	<path class="st0" d="M53.2,46.8h-34c-1.4,0-2.5-1.1-2.5-2.5l0,0c0-1.4,1.1-2.5,2.5-2.5h33.9c1.4,0,2.5,1.1,2.5,2.5l0,0
		C55.7,45.7,54.5,46.8,53.2,46.8z"/>
	<path class="st1" d="M53.6,45.9c-4.4,0-8.8,0-13.1,0c-6.5,0-12.8,0-19.3,0c-0.7,0-1.4,0-2.2,0c-0.1,0-0.3,0-0.4,0
		c-1.2-0.1-1.3-1.1-1.2-2.1c0.1-1.2,0.9-1.4,1.9-1.4c0.8,0,1.6,0,2.4,0c6.6,0,13,0,19.6,0c3,0,6,0,9,0c1.1,0,4.2-0.6,4.6,1
		C55,44.4,54.8,45.8,53.6,45.9c-0.9,0.1-0.9,1.6,0,1.5c2.3-0.2,3.4-2.6,2.6-4.7c-0.5-1.3-1.7-1.9-3-1.9c-2.2,0-4.4,0-6.7,0
		c-7.4,0-14.8,0-22.2,0c-1.9,0-3.7-0.1-5.6,0c-3.8,0.1-3.8,6.4,0,6.6c5.5,0.2,11.1,0,16.6,0c6,0,12,0.2,17.9,0c0.1,0,0.2,0,0.3,0
		C54.5,47.4,54.5,45.9,53.6,45.9z"/>
</g>
<g>
	<path class="st0" d="M51,51.7H17.1c-1.4,0-2.5-1.1-2.5-2.5l0,0c0-1.4,1.1-2.5,2.5-2.5H51c1.4,0,2.5,1.1,2.5,2.5l0,0
		C53.5,50.6,52.4,51.7,51,51.7z"/>
	<path class="st1" d="M51.4,50.9c-4.4,0-8.8,0-13.1,0c-6.5,0-12.8,0-19.3,0c-0.7,0-1.4,0-2.2,0c-0.1,0-0.3,0-0.4,0
		c-1.2-0.1-1.3-1.1-1.3-2.1c0.1-1.2,0.9-1.4,1.9-1.4c0.8,0,1.6,0,2.4,0c6.6,0,13,0,19.6,0c3,0,6,0,9,0c1.1,0,4.2-0.6,4.6,1
		C52.8,49.5,52.7,50.8,51.4,50.9c-0.9,0.1-0.9,1.6,0,1.5c2.3-0.2,3.4-2.6,2.6-4.7c-0.5-1.3-1.7-1.9-3-1.9c-2.2,0-4.4,0-6.7,0
		c-7.4,0-14.8,0-22.2,0c-1.9,0-3.7-0.1-5.6,0c-3.8,0.1-3.8,6.4,0,6.6c5.5,0.2,11.1,0,16.6,0c6,0,12,0.2,17.9,0c0.1,0,0.2,0,0.3,0
		C52.4,52.4,52.4,50.9,51.4,50.9z"/>
</g>
<g>
	<path class="st0" d="M53.2,56.8h-34c-1.4,0-2.5-1.1-2.5-2.5l0,0c0-1.4,1.1-2.5,2.5-2.5h33.9c1.4,0,2.5,1.1,2.5,2.5l0,0
		C55.7,55.7,54.5,56.8,53.2,56.8z"/>
	<path class="st1" d="M53.6,55.9c-4.4,0-8.8,0-13.1,0c-6.5,0-12.8,0-19.3,0c-0.7,0-1.4,0-2.2,0c-0.1,0-0.3,0-0.4,0
		c-1.2-0.1-1.3-1.1-1.2-2.1c0.1-1.2,0.9-1.4,1.9-1.4c0.8,0,1.6,0,2.4,0c6.6,0,13,0,19.6,0c3,0,6,0,9,0c1.1,0,4.2-0.6,4.6,1
		C55,54.5,54.8,55.9,53.6,55.9c-0.9,0.1-0.9,1.6,0,1.5c2.3-0.2,3.4-2.6,2.6-4.7c-0.5-1.3-1.7-1.9-3-1.9c-2.2,0-4.4,0-6.7,0
		c-7.4,0-14.8,0-22.2,0c-1.9,0-3.7-0.1-5.6,0c-3.8,0.1-3.8,6.4,0,6.6c5.5,0.2,11.1,0,16.6,0c6,0,12,0.2,17.9,0c0.1,0,0.2,0,0.3,0
		C54.5,57.5,54.5,55.9,53.6,55.9z"/>
</g>
<g>
	<path class="st0" d="M53.2,61.8h-34c-1.4,0-2.5-1.1-2.5-2.5l0,0c0-1.4,1.1-2.5,2.5-2.5h33.9c1.4,0,2.5,1.1,2.5,2.5l0,0
		C55.7,60.6,54.5,61.8,53.2,61.8z"/>
	<path class="st1" d="M53.6,60.9c-4.4,0-8.8,0-13.1,0c-6.5,0-12.8,0-19.3,0c-0.7,0-1.4,0-2.2,0c-0.1,0-0.3,0-0.4,0
		c-1.2-0.1-1.3-1.1-1.2-2.1c0.1-1.2,0.9-1.4,1.9-1.4c0.8,0,1.6,0,2.4,0c6.6,0,13,0,19.6,0c3,0,6,0,9,0c1.1,0,4.2-0.6,4.6,1
		C55,59.5,54.8,60.8,53.6,60.9c-0.9,0.1-0.9,1.6,0,1.5c2.3-0.2,3.4-2.6,2.6-4.7c-0.5-1.3-1.7-1.9-3-1.9c-2.2,0-4.4,0-6.7,0
		c-7.4,0-14.8,0-22.2,0c-1.9,0-3.7-0.1-5.6,0c-3.8,0.1-3.8,6.4,0,6.6c5.5,0.2,11.1,0,16.6,0c6,0,12,0.2,17.9,0c0.1,0,0.2,0,0.3,0
		C54.5,62.4,54.5,60.9,53.6,60.9z"/>
</g>
<g>
	<path class="st0" d="M51,66.8H17.1c-1.4,0-2.5-1.1-2.5-2.5l0,0c0-1.4,1.1-2.5,2.5-2.5H51c1.4,0,2.5,1.1,2.5,2.5l0,0
		C53.5,65.7,52.4,66.8,51,66.8z"/>
	<path class="st1" d="M51.4,65.9c-4.4,0-8.8,0-13.1,0c-6.5,0-12.8,0-19.3,0c-0.7,0-1.4,0-2.2,0c-0.1,0-0.3,0-0.4,0
		c-1.2-0.1-1.3-1.1-1.3-2.1c0.1-1.2,0.9-1.4,1.9-1.4c0.8,0,1.6,0,2.4,0c6.6,0,13,0,19.6,0c3,0,6,0,9,0c1.1,0,4.2-0.6,4.6,1
		C52.8,64.5,52.7,65.8,51.4,65.9c-0.9,0.1-0.9,1.6,0,1.5c2.3-0.2,3.4-2.6,2.6-4.7c-0.5-1.3-1.7-1.9-3-1.9c-2.2,0-4.4,0-6.7,0
		c-7.4,0-14.8,0-22.2,0c-1.9,0-3.7-0.1-5.6,0c-3.8,0.1-3.8,6.4,0,6.6c5.5,0.2,11.1,0,16.6,0c6,0,12,0.2,17.9,0c0.1,0,0.2,0,0.3,0
		C52.4,67.5,52.4,65.9,51.4,65.9z"/>
</g>
<path class="st2" d="M22.4,16c-1.3,4.7-2.2,10.1-2.8,15.9c-1.7,18.4,1.7,33.6,7.6,34c5.9,0.5,12.1-14.1,13.8-32.5
	c0.6-6.4,0.6-12.4,0-17.5"/>
<polygon class="st2" points="32.6,44.6 56.5,44.6 53.6,40.9 52.8,36 53.6,31.4 55.7,30.3 54.8,26.4 55.8,23.2 53.6,20.8 52.6,16.6 
	32.6,16 "/>
<rect x="34.8" y="15.9" class="st3" width="1.3" height="30.1"/>
<rect x="38" y="16.5" class="st3" width="4.3" height="29.4"/>
<rect x="44.4" y="16.1" class="st3" width="4.8" height="31.1"/>
<rect x="51.3" y="16.1" class="st3" width="1.3" height="19.6"/>
<rect x="54" y="21.8" class="st3" width="1.5" height="3.7"/>
<path class="st1" d="M51.4,20.5c-4.4,0-8.8,0-13.1,0c-6.5,0-12.8,0-19.3,0c-0.7,0-1.4,0-2.2,0c-0.1,0-0.3,0-0.4,0
	c-1.2-0.1-1.3-1.1-1.2-2.2c0.1-1.2,0.9-1.1,1.9-1.1c0.8,0,1.6,0,2.4,0c6.6,0,13,0,19.6,0c3,0,6,0,9,0c0.8,0,1.7,0,2.6,0
	c0.7,0,1.8-0.2,2,0.8C52.8,19,52.7,20.4,51.4,20.5c-0.9,0.1-0.9,1.6,0,1.5c2.3-0.2,3.4-2.6,2.6-4.7c-0.5-1.4-1.7-1.7-2.9-1.6
	c-2.2,0-4.4,0-6.7,0c-7.4,0-14.8,0-22.2,0c-1.9,0-3.7,0-5.6,0s-2.9,1.2-2.9,3c0,1.8,0.9,3.2,2.9,3.3c5.5,0.2,11.1,0,16.6,0
	c6,0,12,0.2,17.9,0c0.1,0,0.2,0,0.3,0C52.4,22,52.4,20.5,51.4,20.5z"/>
<path class="st1" d="M53.3,25.4c-4.4,0-8.8,0-13.1,0c-6.5,0-12.8,0-19.3,0c-0.7,0-1.4,0-2.2,0c-0.1,0-0.3,0-0.4,0
	c-1.2-0.1-1.3-1.1-1.2-2.2c0.1-1.2,0.9-1.1,1.9-1.1c0.8,0,1.6,0,2.4,0c6.6,0,13,0,19.6,0c3,0,6,0,9,0c0.8,0,1.7,0,2.6,0
	c0.7,0,1.8-0.2,2,0.8S54.6,25.3,53.3,25.4c-0.9,0.1-0.9,1.6,0,1.5c2.3-0.2,3.4-2.6,2.6-4.7c-0.5-1.4-1.7-1.7-2.9-1.6
	c-2.2,0-4.4,0-6.7,0c-7.4,0-14.8,0-22.2,0c-1.9,0-3.7,0-5.6,0c-1.9,0-2.9,1.2-2.9,3c0,1.8,0.9,3.2,2.9,3.3c5.5,0.2,11.1,0,16.6,0
	c6,0,12,0.2,17.9,0c0.1,0,0.2,0,0.3,0C54.3,26.9,54.3,25.4,53.3,25.4z"/>
<path class="st1" d="M53.6,30.7c-4.4,0-8.8,0-13.1,0c-6.5,0-12.8,0-19.3,0c-0.7,0-1.4,0-2.2,0c-0.1,0-0.3,0-0.4,0
	c-1.2-0.1-1.3-1.1-1.2-2.1c0.1-1.2,0.9-1.4,1.9-1.4c0.8,0,1.6,0,2.4,0c6.6,0,13,0,19.6,0c3,0,6,0,9,0c1.1,0,4.2-0.6,4.6,1
	C55,29.3,54.8,30.6,53.6,30.7c-0.9,0.1-0.9,1.6,0,1.5c2.3-0.2,3.4-2.6,2.6-4.7c-0.5-1.3-1.7-1.9-3-1.9c-2.2,0-4.4,0-6.7,0
	c-7.4,0-14.8,0-22.2,0c-1.9,0-3.7-0.1-5.6,0c-3.8,0.1-3.8,6.4,0,6.6c5.5,0.2,11.1,0,16.6,0c6,0,12,0.2,17.9,0c0.1,0,0.2,0,0.3,0
	C54.5,32.2,54.5,30.7,53.6,30.7z"/>
<path class="st1" d="M51.4,35.9c-4.4,0-8.8,0-13.1,0c-6.5,0-12.8,0-19.3,0c-0.7,0-1.4,0-2.2,0c-0.1,0-0.3,0-0.4,0
	c-1.2-0.2-1.3-1.1-1.3-2.2c0.1-1.2,0.9-1.4,1.9-1.4c0.8,0,1.6,0,2.4,0c6.6,0,13,0,19.6,0c3,0,6,0,9,0c1.1,0,4.2-0.6,4.6,1
	C52.8,34.4,52.7,35.8,51.4,35.9c-0.9,0.1-0.9,1.6,0,1.5c2.3-0.2,3.4-2.6,2.6-4.7c-0.5-1.3-1.7-1.9-3-1.9c-2.2,0-4.4,0-6.7,0
	c-7.4,0-14.8,0-22.2,0c-1.9,0-3.7-0.1-5.6,0c-3.8,0.1-3.8,6.4,0,6.6c5.5,0.2,11.1,0,16.6,0c6,0,12,0.2,17.9,0c0.1,0,0.2,0,0.3,0
	C52.4,37.4,52.4,35.9,51.4,35.9z"/>
<path class="st1" d="M51.4,40.9c-4.4,0-8.8,0-13.1,0c-6.5,0-12.8,0-19.3,0c-0.7,0-1.4,0-2.2,0c-0.1,0-0.3,0-0.4,0
	c-1.2-0.1-1.3-1.1-1.2-2.1c0.1-1.2,0.9-1.4,1.9-1.4c0.8,0,1.6,0,2.4,0c6.6,0,13,0,19.6,0c3,0,6,0,9,0c1.1,0,4.2-0.6,4.6,1
	C52.8,39.5,52.7,40.8,51.4,40.9c-0.9,0.1-0.9,1.6,0,1.5c2.3-0.2,3.4-2.6,2.6-4.7c-0.5-1.3-1.7-1.9-3-1.9c-2.2,0-4.4,0-6.7,0
	c-7.4,0-14.8,0-22.2,0c-1.9,0-3.7-0.1-5.6,0c-3.8,0.1-3.8,6.4,0,6.6c5.5,0.2,11.1,0,16.6,0c6,0,12,0.2,17.9,0c0.1,0,0.2,0,0.3,0
	C52.4,42.4,52.4,40.9,51.4,40.9z"/>
<path class="st1" d="M53.6,45.9c-4.4,0-8.8,0-13.1,0c-6.5,0-12.8,0-19.3,0c-0.7,0-1.4,0-2.2,0c-0.1,0-0.3,0-0.4,0
	c-1.2-0.1-1.3-1.1-1.2-2.1c0.1-1.2,0.9-1.4,1.9-1.4c0.8,0,1.6,0,2.4,0c6.6,0,13,0,19.6,0c3,0,6,0,9,0c1.1,0,4.2-0.6,4.6,1
	C55,44.4,54.8,45.8,53.6,45.9c-0.9,0.1-0.9,1.6,0,1.5c2.3-0.2,3.4-2.6,2.6-4.7c-0.5-1.3-1.7-1.9-3-1.9c-2.2,0-4.4,0-6.7,0
	c-7.4,0-14.8,0-22.2,0c-1.9,0-3.7-0.1-5.6,0c-3.8,0.1-3.8,6.4,0,6.6c5.5,0.2,11.1,0,16.6,0c6,0,12,0.2,17.9,0c0.1,0,0.2,0,0.3,0
	C54.5,47.4,54.5,45.9,53.6,45.9z"/>
<path class="st1" d="M51.4,50.9c-4.4,0-8.8,0-13.1,0c-6.5,0-12.8,0-19.3,0c-0.7,0-1.4,0-2.2,0c-0.1,0-0.3,0-0.4,0
	c-1.2-0.1-1.3-1.1-1.3-2.1c0.1-1.2,0.9-1.4,1.9-1.4c0.8,0,1.6,0,2.4,0c6.6,0,13,0,19.6,0c3,0,6,0,9,0c1.1,0,4.2-0.6,4.6,1
	C52.8,49.5,52.7,50.8,51.4,50.9c-0.9,0.1-0.9,1.6,0,1.5c2.3-0.2,3.4-2.6,2.6-4.7c-0.5-1.3-1.7-1.9-3-1.9c-2.2,0-4.4,0-6.7,0
	c-7.4,0-14.8,0-22.2,0c-1.9,0-3.7-0.1-5.6,0c-3.8,0.1-3.8,6.4,0,6.6c5.5,0.2,11.1,0,16.6,0c6,0,12,0.2,17.9,0c0.1,0,0.2,0,0.3,0
	C52.4,52.4,52.4,50.9,51.4,50.9z"/>
<path class="st1" d="M53.6,55.9c-4.4,0-8.8,0-13.1,0c-6.5,0-12.8,0-19.3,0c-0.7,0-1.4,0-2.2,0c-0.1,0-0.3,0-0.4,0
	c-1.2-0.1-1.3-1.1-1.2-2.1c0.1-1.2,0.9-1.4,1.9-1.4c0.8,0,1.6,0,2.4,0c6.6,0,13,0,19.6,0c3,0,6,0,9,0c1.1,0,4.2-0.6,4.6,1
	C55,54.5,54.8,55.9,53.6,55.9c-0.9,0.1-0.9,1.6,0,1.5c2.3-0.2,3.4-2.6,2.6-4.7c-0.5-1.3-1.7-1.9-3-1.9c-2.2,0-4.4,0-6.7,0
	c-7.4,0-14.8,0-22.2,0c-1.9,0-3.7-0.1-5.6,0c-3.8,0.1-3.8,6.4,0,6.6c5.5,0.2,11.1,0,16.6,0c6,0,12,0.2,17.9,0c0.1,0,0.2,0,0.3,0
	C54.5,57.5,54.5,55.9,53.6,55.9z"/>
<path class="st1" d="M53.6,60.9c-4.4,0-8.8,0-13.1,0c-6.5,0-12.8,0-19.3,0c-0.7,0-1.4,0-2.2,0c-0.1,0-0.3,0-0.4,0
	c-1.2-0.1-1.3-1.1-1.2-2.1c0.1-1.2,0.9-1.4,1.9-1.4c0.8,0,1.6,0,2.4,0c6.6,0,13,0,19.6,0c3,0,6,0,9,0c1.1,0,4.2-0.6,4.6,1
	C55,59.5,54.8,60.8,53.6,60.9c-0.9,0.1-0.9,1.6,0,1.5c2.3-0.2,3.4-2.6,2.6-4.7c-0.5-1.3-1.7-1.9-3-1.9c-2.2,0-4.4,0-6.7,0
	c-7.4,0-14.8,0-22.2,0c-1.9,0-3.7-0.1-5.6,0c-3.8,0.1-3.8,6.4,0,6.6c5.5,0.2,11.1,0,16.6,0c6,0,12,0.2,17.9,0c0.1,0,0.2,0,0.3,0
	C54.5,62.4,54.5,60.9,53.6,60.9z"/>
<path class="st1" d="M51.4,65.9c-4.4,0-8.8,0-13.1,0c-6.5,0-12.8,0-19.3,0c-0.7,0-1.4,0-2.2,0c-0.1,0-0.3,0-0.4,0
	c-1.2-0.1-1.3-1.1-1.3-2.1c0.1-1.2,0.9-1.4,1.9-1.4c0.8,0,1.6,0,2.4,0c6.6,0,13,0,19.6,0c3,0,6,0,9,0c1.1,0,4.2-0.6,4.6,1
	C52.8,64.5,52.7,65.8,51.4,65.9c-0.9,0.1-0.9,1.6,0,1.5c2.3-0.2,3.4-2.6,2.6-4.7c-0.5-1.3-1.7-1.9-3-1.9c-2.2,0-4.4,0-6.7,0
	c-7.4,0-14.8,0-22.2,0c-1.9,0-3.7-0.1-5.6,0c-3.8,0.1-3.8,6.4,0,6.6c5.5,0.2,11.1,0,16.6,0c6,0,12,0.2,17.9,0c0.1,0,0.2,0,0.3,0
	C52.4,67.5,52.4,65.9,51.4,65.9z"/>
<g>
	<circle class="st2" cx="53.4" cy="47.5" r="19.6"/>
</g>
<polygon class="st4" points="69.9,58.6 42.4,31 45.9,29.1 72,55.2 "/>
<rect x="61" y="23.7" transform="matrix(0.7071 -0.7071 0.7071 0.7071 -9.7882 55.1912)" class="st4" width="1.5" height="31.4"/>
<polygon class="st4" points="72.7,43.4 58.2,29 61.4,29.1 72,39.8 "/>
<polygon class="st4" points="61.3,66 35,39.8 36.9,37.8 63.6,64.5 "/>
<polygon class="st4" points="48.5,67 33.9,52.4 34.7,49.2 51.9,66.5 "/>
<path class="st1" d="M33.1,47.5c0.1,8.5,5.4,16.2,13.5,19.1c8,2.9,17.2,0.4,22.6-6.3c5.3-6.6,6.1-16,1.8-23.3
	c-4.4-7.3-13.1-11.2-21.5-9.5C39.9,29.5,33.2,38.1,33.1,47.5c0,0.9,1.5,0.9,1.5,0c0.1-7.8,5-15,12.4-17.7s15.8-0.4,21,5.6
	c5.1,6.1,5.7,15,1.7,21.7c-4,6.7-12.1,10.4-19.9,8.8c-8.7-1.8-15.1-9.6-15.2-18.5C34.6,46.6,33.1,46.6,33.1,47.5z"/>
<g>
	<path class="st1" d="M48.5,52.4c-0.4,0-0.7-0.1-1-0.3c-0.3-0.2-0.6-0.4-0.7-0.7c-0.2,0.3-0.5,0.5-0.8,0.7c-0.3,0.2-0.7,0.3-1,0.3
		c-0.4,0-0.7-0.1-1-0.2c-0.3-0.2-0.6-0.4-0.7-0.6s-0.4-0.5-0.6-0.8c-0.1-0.3-0.2-0.6-0.3-0.9l0,0c0-0.1,0-0.3-0.1-0.4
		c0-0.1,0-0.3,0-0.4c0-0.3,0-0.6,0.1-0.8c0-0.3,0.1-0.6,0.1-0.8c0.1-0.4,0.2-0.7,0.4-1.1s0.3-0.7,0.6-1.2c0.2-0.4,0.5-0.8,0.7-1.3
		s0.6-0.9,0.9-1.5L44.7,42l1.3-1.3c0.4,0.4,0.7,0.7,1,0.9s0.6,0.6,0.7,0.7s0.5,0.5,0.7,0.7s0.4,0.4,0.6,0.7c0.5,0.6,0.8,1.2,1.2,1.8
		s0.7,1.2,0.8,1.9c0.1,0.2,0.1,0.5,0.2,0.7c0,0.3,0.1,0.5,0.1,0.7c0,0.5-0.1,0.8-0.2,1.2c-0.1,0.4-0.3,0.7-0.5,1.1
		c-0.2,0.3-0.6,0.6-0.8,0.7C49.5,52.3,49.1,52.4,48.5,52.4L48.5,52.4z M47.5,48.1c0,0.2,0,0.5,0,0.7s0.1,0.6,0.1,0.7
		c0.1,0.3,0.2,0.5,0.3,0.7s0.3,0.3,0.5,0.3s0.3-0.1,0.5-0.2c0.2-0.1,0.3-0.2,0.4-0.4c0.1-0.2,0.2-0.3,0.3-0.5s0.1-0.4,0.1-0.6
		c0-0.2,0-0.4,0-0.6c0-0.2-0.1-0.4-0.1-0.5c-0.2-0.5-0.4-0.8-0.6-1.2c-0.3-0.4-0.5-0.7-0.8-1.1c-0.3-0.4-0.7-0.7-0.9-1s-0.7-0.7-1-1
		c-0.3,0.3-0.5,0.7-0.7,1s-0.5,0.7-0.7,1.1s-0.4,0.7-0.6,1.1c-0.2,0.4-0.3,0.7-0.4,1c0,0.2-0.1,0.5-0.1,0.7c0,0.3,0,0.5,0,0.7
		s0,0.4,0.1,0.6s0.1,0.3,0.2,0.5c0.1,0.1,0.2,0.2,0.4,0.3c0.1,0.1,0.3,0.1,0.4,0.1c0.1,0,0.2,0,0.3-0.1c0.1,0,0.2-0.1,0.3-0.2
		c0.1-0.1,0.2-0.2,0.3-0.3s0.2-0.3,0.2-0.5c0.1-0.2,0.1-0.4,0.1-0.6c0-0.2,0.1-0.3,0.1-0.5s0-0.3,0.1-0.4H47.5z"/>
	<path class="st1" d="M52.9,48.3c0-0.4,0.1-0.7,0.2-1c0.1-0.3,0.4-0.7,0.6-0.8c0.3-0.3,0.6-0.5,0.8-0.6c0.3-0.1,0.7-0.2,1-0.2
		c0.4,0,0.7,0.1,1,0.2c0.3,0.1,0.7,0.4,0.8,0.6c0.3,0.3,0.5,0.6,0.6,0.8c0.1,0.3,0.2,0.7,0.2,1c0,0.4-0.1,0.7-0.2,1
		c-0.1,0.3-0.4,0.6-0.6,0.8c-0.3,0.3-0.6,0.5-0.8,0.6c-0.3,0.1-0.7,0.2-1,0.2c-0.4,0-0.7-0.1-1-0.2c-0.3-0.1-0.6-0.4-0.8-0.6
		c-0.3-0.3-0.5-0.6-0.6-0.8C52.9,49,52.9,48.7,52.9,48.3z M54.3,48.3c0,0.2,0,0.3,0.1,0.5s0.2,0.3,0.3,0.4c0.1,0.1,0.3,0.2,0.4,0.3
		c0.2,0.1,0.3,0.1,0.5,0.1s0.3,0,0.5-0.1s0.3-0.2,0.4-0.3c0.1-0.1,0.2-0.3,0.3-0.4c0.1-0.2,0.1-0.3,0.1-0.5s0-0.3-0.1-0.5
		s-0.2-0.3-0.3-0.4c-0.1-0.1-0.3-0.2-0.4-0.3c-0.2-0.1-0.3-0.1-0.5-0.1s-0.3,0-0.5,0.1s-0.3,0.2-0.4,0.3c-0.1,0.1-0.2,0.3-0.3,0.4
		C54.4,48,54.3,48.1,54.3,48.3z"/>
	<path class="st1" d="M60.2,48.3c0-0.4,0.1-0.7,0.2-1s0.4-0.7,0.6-0.8c0.3-0.3,0.6-0.5,0.8-0.6s0.7-0.2,1-0.2s0.7,0.1,1,0.2
		c0.3,0.1,0.7,0.4,0.8,0.6c0.3,0.3,0.5,0.6,0.6,0.8c0.1,0.3,0.2,0.7,0.2,1c0,0.4-0.1,0.7-0.2,1c-0.1,0.3-0.4,0.6-0.6,0.8
		c-0.3,0.3-0.6,0.5-0.8,0.6c-0.3,0.1-0.7,0.2-1,0.2s-0.7-0.1-1-0.2c-0.3-0.1-0.6-0.4-0.8-0.6c-0.3-0.3-0.5-0.6-0.6-0.8
		C60.2,49,60.2,48.7,60.2,48.3z M61.6,48.3c0,0.2,0,0.3,0.1,0.5s0.2,0.3,0.3,0.4c0.1,0.1,0.3,0.2,0.4,0.3c0.2,0.1,0.3,0.1,0.5,0.1
		s0.3,0,0.5-0.1c0.2-0.1,0.3-0.2,0.4-0.3s0.2-0.3,0.3-0.4c0.1-0.2,0.1-0.3,0.1-0.5s0-0.3-0.1-0.5s-0.2-0.3-0.3-0.4
		c-0.1-0.1-0.3-0.2-0.4-0.3c-0.2-0.1-0.3-0.1-0.5-0.1s-0.3,0-0.5,0.1s-0.3,0.2-0.4,0.3s-0.2,0.3-0.3,0.4
		C61.7,48,61.6,48.1,61.6,48.3z"/>
</g>
</svg>
