<?xml version="1.0" encoding="utf-8"?>
<!-- Generator: Adobe Illustrator 21.0.0, SVG Export Plug-In . SVG Version: 6.00 Build 0)  -->
<svg version="1.1" id="Layer_1" xmlns="http://www.w3.org/2000/svg" xmlns:xlink="http://www.w3.org/1999/xlink" x="0px" y="0px"
	 viewBox="0 0 85 85" style="enable-background:new 0 0 85 85;" xml:space="preserve">
<style type="text/css">
	.st0{fill:#FFC200;}
	.st1{fill:#D17609;}
	.st2{fill:#F1DBCB;}
	.st3{fill:#FFF0E9;}
	.st4{fill:#E0CBBD;}
</style>
<rect x="13.6" y="14.5" class="st0" width="56.3" height="37.1"/>
<rect x="13.3" y="19.9" width="56.7" height="7.7"/>
<path class="st1" d="M63.8,37.8H53.3c-0.6,0-1.1,0.5-1.1,1.1c0,0.6,0.5,1.1,1.1,1.1h10.6c0.6,0,1.1-0.5,1.1-1.1
	C65,38.3,64.5,37.8,63.8,37.8z"/>
<path class="st1" d="M63.8,42.3H44.6c-0.6,0-1.1,0.5-1.1,1.1c0,0.6,0.5,1.1,1.1,1.1h19.2c0.6,0,1.1-0.5,1.1-1.1
	C65,42.8,64.5,42.3,63.8,42.3z"/>
<path d="M67,51.3H30.3c-4.4,0-9,0.3-13.4,0c-3.2-0.2-2.7-3.5-2.7-5.8V23.2c0-1.9-0.1-3.8,0-5.7c0.2-2.9,2.7-2.7,4.8-2.7h8
	c13.2,0,26.3-0.3,39.5,0c1.4-0.1,2.7,0.8,3,2.1c0.1,0.7,0.1,1.3,0.1,2v9.2c0,6.6,0.1,13.3,0,19.9C69.6,49.7,68.8,51.2,67,51.3
	c-1.5,0.1-1.5,2.3,0,2.2c2.7-0.1,4.8-2.2,4.9-4.9c0-0.6,0-1.2,0-1.7V36.4c0-6.3,0.3-12.6,0-18.9c-0.1-3.4-2.9-4.9-5.9-4.9h-32
	c-5.6,0-11.2-0.1-16.7,0c-2.8,0-5.1,2.2-5.2,5c0,0.1,0,0.3,0,0.4c0,2.8,0,5.7,0,8.5c0,7.2-0.1,14.3,0,21.5c0,3.1,1.9,5.5,5.2,5.5
	c1.9,0,3.8,0,5.7,0H67c0.6-0.1,1.1-0.6,1-1.2C67.9,51.8,67.5,51.3,67,51.3z"/>
<path class="st2" d="M25.5,44.7v20c0.1,3.6,3,6.4,6.6,6.4c0,0,0,0,0,0h20.7c3.6,0.1,6.5-2.8,6.6-6.4c0,0,0,0,0,0V52.6H31.5v-7.8
	c0-1.7-1.4-3-3-3l0,0C26.8,41.8,25.5,43.1,25.5,44.7z"/>
<path class="st3" d="M56.5,53.5v12.2c-0.3,2.4-1.7,4.5-3.8,5.7c-3.6,2.1,3.5-0.4,3.5-0.4l2.3-3.2l1.1-6.5L59,53L56.5,53.5z"/>
<path class="st4" d="M37.4,55.4h18.3c0.4,0,0.8-0.2,1.1-0.5l1.2-1.4l-22.3-0.1L37.4,55.4z"/>
<path class="st3" d="M38.7,61c0.3-4.6-4-7.8-8-8.8l0.8,1.1c0-3.6,0.4-7.2-1.3-10.6c-0.6-1.3-2.6-0.2-1.9,1.1c1.4,2.9,1,6.3,1,9.5
	c0,0.5,0.3,0.9,0.8,1.1c3,0.8,6.6,3,6.4,6.7C36.3,62.4,38.6,62.4,38.7,61L38.7,61z"/>
<path class="st4" d="M26.9,41.9c-1.2,1.4-1.9,3.3-1.8,5.2v17c0,2.8,1.1,5.4,3.8,6.5c1.3,0.4,2.7,0.6,4.1,0.5h13.6
	c3.6,0,7.1,0.4,10.6-0.7c0.6-0.3,0.8-0.9,0.6-1.5c-0.2-0.4-0.7-0.7-1.2-0.7c-0.9,0.3-1.9,0.5-2.9,0.6H35.6c-3.4,0-8.2,0.6-8.3-4.3
	c0-3.1,0-6.3,0-9.4v-7.1c0-1.8-0.1-3.2,1.2-4.7C29.4,42.4,27.8,40.7,26.9,41.9z"/>
<path d="M40.2,60.6c0.4-4-2.7-7.4-6.1-8.9c-1.3-0.6-2.4,1.4-1.1,1.9c2.8,1.2,5.3,3.7,5,7C37.8,62,40,62,40.2,60.6z"/>
<path d="M24.1,44.9v14.2c0,1.9,0,3.8,0,5.8c0.1,3.7,2.8,6.9,6.5,7.4c1.7,0.2,3.4,0.2,5,0.1h9.2c4.8,0,11.4,1.2,14.4-3.7
	c1.5-2.4,1.1-5.5,1.1-8.2v-7.8c0-0.6-0.5-1.1-1.1-1.1H31.3l1.1,1.1c0-2.6,0.1-5.2,0-7.8C32.2,39.6,24.5,39.6,24.1,44.9
	c-0.1,1.4,2.1,1.4,2.2,0c0.1-1.1,1-1.9,2.1-1.8c0.9,0.1,1.6,0.7,1.8,1.5c0.1,0.7,0.1,1.5,0,2.2v5.9c0,0.6,0.5,1.1,1.1,1.1h27.9
	l-1.1-1.1c0,4,0.1,8.1,0,12.1c-0.1,3.3-2.7,5.3-5.8,5.3c-1.9,0-3.9,0-5.8,0c-4.8,0-9.6,0-14.3,0c-3,0.1-5.6-2.2-5.7-5.2
	c0,0,0,0,0-0.1c-0.1-1.7,0-3.4,0-5V44.9c0-0.6-0.5-1.1-1.1-1.1C24.7,43.8,24.2,44.3,24.1,44.9z"/>
</svg>
