<?xml version="1.0" encoding="utf-8"?>
<!-- Generator: Adobe Illustrator 21.0.0, SVG Export Plug-In . SVG Version: 6.00 Build 0)  -->
<svg version="1.1" id="Layer_1" xmlns="http://www.w3.org/2000/svg" xmlns:xlink="http://www.w3.org/1999/xlink" x="0px" y="0px"
	 viewBox="0 0 85 85" style="enable-background:new 0 0 85 85;" xml:space="preserve">
<style type="text/css">
	.st0{fill:#F1DBCB;}
	.st1{fill:#D8C6C0;}
	.st2{fill:#2C3E50;}
	.st3{fill:none;}
	.st4{fill:#FFFFFF;}
</style>
<g>
	<path class="st0" d="M62.1,70.4H23.6c-7.7,0-9-6.2-9-8.7V14c0-0.9,0.7-1.6,1.6-1.6h34.4c0.9,0,1.6,0.7,1.6,1.6v31.3l0.7,15.5
		l10.9,8.1C63.7,69.7,63,70.4,62.1,70.4z"/>
</g>
<path class="st1" d="M48.7,12.7v47.1v3.8c0,3.7,3,6.7,6.7,6.7h6.1l2.1-1.1l-11.3-7.9l-0.6-48.6H48.7z"/>
<polygon class="st1" points="17.2,67.5 56.3,67.5 56.3,70.5 18.7,69.8 "/>
<g>
	<path class="st2" d="M30.8,30.7h11.5c0.1,0,0.2-0.1,0.2-0.2l0.1-0.7v-0.2c0,0,0-0.1-0.1-0.2c-0.1-0.1-0.2-0.2-0.3-0.2h-0.1H31.2
		c-0.2,0-0.3-0.1-0.2-0.3l0.4-0.7c0.1-0.1,0.2-0.1,0.2-0.1h10.6c0.1,0,0.1,0,0.2,0c0.3,0,0.7,0.2,0.9,0.4c0.3,0.3,0.4,0.6,0.4,1
		c0,0.1,0,0.1,0,0.2l-1.2,8.3c-0.1,0.4-0.2,0.8-0.5,1c-0.3,0.3-0.6,0.4-1,0.4h0.1H30.7h-6.1H24c-0.2,0-0.3-0.2-0.2-0.3l0.3-0.6
		l5.1-10.6c0-0.1,0-0.3-0.2-0.3h-4.2c-0.1,0-0.2-0.1-0.2-0.2v-0.6c0-0.1,0.1-0.2,0.2-0.2h5.6h0.6c0.2,0,0.3,0.1,0.2,0.3l-0.3,0.6
		L25.7,38c-0.1,0.1,0,0.3,0.2,0.3h4.6h10.3H41c0.1,0,0,0,0.2-0.1c0.1-0.2,0.2-0.2,0.2-0.4l0.6-3.7c0-0.1-0.1-0.2-0.2-0.2H29.5
		c-0.2,0-0.3-0.2-0.2-0.3l1.3-2.7C30.7,30.8,30.7,30.7,30.8,30.7z M31.1,36.2H39c0.2,0,0.3,0.1,0.3,0.3l0,0c0,0.2-0.2,0.3-0.3,0.3
		h-7.9c-0.2,0-0.3-0.1-0.3-0.3l0,0C30.8,36.4,30.9,36.2,31.1,36.2z M37.5,34.5h1.5c0.2,0,0.3,0.1,0.3,0.3l0,0c0,0.2-0.2,0.3-0.3,0.3
		h-1.5c-0.2,0-0.3-0.1-0.3-0.3l0,0C37.1,34.7,37.3,34.5,37.5,34.5z M32.3,34.5h3.9c0.2,0,0.3,0.1,0.3,0.3l0,0c0,0.2-0.2,0.3-0.3,0.3
		h-3.9c-0.2,0-0.3-0.1-0.3-0.3l0,0C32,34.7,32.1,34.5,32.3,34.5z"/>
</g>
<path class="st2" d="M61.9,69.3c-12.8,0-25.6,0.2-38.4,0c-4.4-0.1-7.7-2.8-7.8-7.3c-0.1-1.6,0-3.2,0-4.9c0-8.4,0-16.7,0-25.1
	c0-4,0-8,0-12c0-1.3,0-2.6,0-3.9c0-0.5-0.2-1.4,0-1.9c0.4-1.1,3.8-0.5,4.7-0.5c4.1,0,8.3,0,12.4,0c4.2,0,8.4,0,12.6,0
	c1.3,0,2.6,0,3.9,0c0.6,0,1.1-0.2,1.3,0.5c0.2,0.6,0,1.8,0,2.5c0,1.7,0,3.4,0,5.2c0,4.5,0,9,0,13.5c0,5.5,0,10.8,0.3,16.3
	c0.1,2.2,0.2,4.4,0.3,6.7c0,0.9-0.2,2.6,0.5,3.4c0.7,0.8,2,1.5,2.9,2.1c1.8,1.3,3.5,2.6,5.4,3.9c1,0.7,1.9,1.4,2.9,2.1
	c-0.2-0.3-0.4-0.7-0.6-1c0,0.2-0.2,0.4-0.4,0.4c-1.5,0.2-1.6,2.3,0,2.1c1.5-0.2,2.7-0.7,2.9-2.3c0-0.5-0.2-1-0.6-1.2l-10.9-8.1
	c0.2,0.3,0.4,0.7,0.6,1c-0.3-5.4-0.8-10.7-0.8-16.1c0-7.4,0-14.8,0-22.1c0-2.7,0.1-5.6,0-8.3c-0.1-2.7-2.1-3.1-4.3-3.1
	c-7.7,0-15.5,0-23.1,0c-3,0-6,0-9,0c-2.2,0-3.5,1.2-3.5,3.4c-0.1,6.5,0,12.8,0,19.3c0,7.9,0,15.8,0,23.6c0,1.5-0.1,2.9,0,4.4
	c0.2,3.9,2.3,7.7,6.2,9c2.3,0.8,4.9,0.6,7.3,0.6c3.7,0,7.4,0,11.1,0c7.6,0,15.1,0,22.6,0c0.5,0,0.9,0,1.4,0
	C63.4,71.7,63.4,69.3,61.9,69.3z"/>
<g>
	<path class="st1" d="M52.2,43.1l1.9-1.9l4.1,5.7l4.2-5.7l3.9,5.7l5.7-5.7v21.1c0,0-0.9,8.9-9.7,8.9c-9.1,0-10.1-9.4-10.1-9.4
		L52.2,43.1z"/>
	<path class="st2" d="M52.9,42.8c0.6-0.7,1.3-1.3,1.9-2c-0.6-0.1-1.3-0.2-1.9-0.2c1.4,1.9,2.7,3.8,4.1,5.8c0.6,0.8,1.5,0.8,2.1,0
		c1.4-1.9,2.8-3.8,4.2-5.8c-0.7,0-1.4,0-2.1,0c1.3,1.9,2.6,3.8,3.9,5.8c0.4,0.6,1.3,0.8,1.9,0.2c1.9-1.9,3.7-3.8,5.7-5.8
		c-0.7-0.3-1.4-0.6-2.1-0.9c0,4.3,0,8.8,0,13.1c0,2.4,0,4.9,0,7.3c0,0.3,0,0.7,0,1c0-0.1,0-0.1,0,0.2c-0.1,0.4-0.2,0.8-0.3,1.2
		c-0.7,2.5-2.3,4.7-4.7,5.8c-3.3,1.5-7.4,0.7-9.8-1.9c-1.3-1.5-2.2-3.5-2.5-5.6c-0.1-0.3,0,0,0,0c0-0.1,0-0.3,0-0.5
		c0-0.9,0-1.8,0-2.7c0-5.3,0-10.5,0-15.8c0-1.6-2.4-1.6-2.4,0c0,5.1,0,10.2,0,15.3c0,3.8,0.2,7,2.5,10.2c4.3,5.9,13.8,5.7,17.8-0.5
		c2-3.1,1.9-6.3,1.9-9.8c0-5.7,0-11.4,0-17.1c0-1.1-1.3-1.6-2.1-0.9c-1.9,1.9-3.7,3.8-5.7,5.8c0.6,0.1,1.3,0.2,1.9,0.2
		c-1.3-1.9-2.6-3.8-3.9-5.8c-0.5-0.8-1.5-0.8-2.1,0c-1.4,1.9-2.8,3.8-4.2,5.8c0.7,0,1.4,0,2.1,0c-1.4-1.9-2.7-3.8-4.1-5.8
		c-0.4-0.6-1.3-0.8-1.9-0.2c-0.6,0.7-1.3,1.3-1.9,2C50.1,42.2,51.8,44,52.9,42.8z"/>
</g>
<path class="st2" d="M25,54.1h10c1.5,0,1.7-2,0-2H25C23.4,52.1,23.4,54.1,25,54.1L25,54.1z"/>
<path class="st2" d="M25,58.1c2.7,0,5.4,0,8.1,0c1.6,0,1.7-2.1,0-2H25C23.3,56.1,23.4,58.1,25,58.1L25,58.1z"/>
<path class="st2" d="M25,62.2h10c1.6,0,1.7-2,0-2H25C23.4,60.2,23.4,62.2,25,62.2L25,62.2z"/>
<path class="st2" d="M41.5,54.1h2.6c1.5,0,1.7-2,0-2h-2.6C39.9,52.1,40,54.1,41.5,54.1L41.5,54.1z"/>
<path class="st2" d="M41.5,58.1c0.9,0,1.7,0,2.6,0c1.5,0,1.6-2,0-2h-2.6C39.9,56.1,40,58.1,41.5,58.1L41.5,58.1z"/>
<path class="st2" d="M41.5,62.2h2.6c1.6,0,1.6-2,0-2h-2.6C39.9,60.2,39.9,62.2,41.5,62.2L41.5,62.2z"/>
<g>
	<line class="st3" x1="19.6" y1="16.4" x2="19.6" y2="20.6"/>
	<path class="st4" d="M18.1,16.2c0,1.4,0,2.8,0,4.3c0,1.6,1.8,1.6,1.7-0.1c0-1.4,0-2.8,0-4.2C19.9,14.7,18.1,14.6,18.1,16.2
		L18.1,16.2z"/>
</g>
<g>
	<line class="st3" x1="19.2" y1="26.5" x2="19.2" y2="62"/>
	<path class="st4" d="M18.1,26.5c0,10.3,0,20.5,0,30.8c0,1.5,0,2.9,0,4.4c0,1.5,1.7,1.6,1.7,0c0-10.3,0-20.5,0-30.8
		c0-1.5,0-2.9,0-4.4C19.9,25,18.1,25,18.1,26.5L18.1,26.5z"/>
</g>
</svg>
