<svg xmlns="http://www.w3.org/2000/svg" width="47" height="47" viewBox="0 0 47 47">
  <g fill="none" fill-rule="evenodd" transform="translate(.68 .2)">
    <path fill="#EA1D5D" fill-opacity=".9" d="M23.0400009,0 C27.2492529,0 31.1445987,1.05229721 34.7261552,3.1569232 C38.1969419,5.1507794 40.9292224,7.88305988 42.9230786,11.3538466 C45.0277046,14.9354031 46.0800018,18.8307489 46.0800018,23.0400009 C46.0800018,27.2492529 45.0277046,31.1445987 42.9230786,34.7261552 C40.9292224,38.1969419 38.1969419,40.9292224 34.7261552,42.9230786 C31.1445987,45.0277046 27.2492529,46.0800018 23.0400009,46.0800018 C18.8307489,46.0800018 14.9354031,45.0277046 11.3538466,42.9230786 C7.88305988,40.8922992 5.1507794,38.1415573 3.1569232,34.6707706 C1.05229721,31.0892141 0,27.2123296 0,23.0400009 C0,18.8676722 1.05229721,14.9907877 3.1569232,11.4092312 C5.18770267,7.9384445 7.9384445,5.18770267 11.4092312,3.1569232 C14.9907877,1.05229721 18.8676722,0 23.0400009,0 Z"/>
    <polygon fill="#FDE9EF" points="16.28 33.12 33.56 23.067 16.28 12.96"/>
  </g>
</svg>
