<?xml version="1.0" encoding="utf-8"?>
<!-- Generator: Adobe Illustrator 21.0.0, SVG Export Plug-In . SVG Version: 6.00 Build 0)  -->
<svg version="1.1" id="Layer_1" xmlns="http://www.w3.org/2000/svg" xmlns:xlink="http://www.w3.org/1999/xlink" x="0px" y="0px"
	 viewBox="0 0 50 50" style="enable-background:new 0 0 50 50;" xml:space="preserve">
<style type="text/css">
	.st0{fill:#4A4A4A;}
</style>
<desc>Created with Sketch.</desc>
<g id="Page-1">
	<g id="Artboard-Copy-3" transform="translate(-363.000000, -253.000000)">
		<g id="qr-code" transform="translate(363.000000, 253.000000)">
			<path id="Shape" class="st0" d="M5.1,45h18.2V26.9H5.1V45z M8.7,30.5h10.9v10.9H8.7V30.5z"/>
			<rect id="Rectangle-path" x="12.3" y="34.1" class="st0" width="3.6" height="3.6"/>
			<rect id="Rectangle-path_1_" x="35.9" y="41.3" class="st0" width="3.6" height="3.6"/>
			<rect id="Rectangle-path_2_" x="41.3" y="41.3" class="st0" width="3.6" height="3.6"/>
			<polygon id="Shape_1_" class="st0" points="41.3,30.5 37.7,30.5 37.7,26.9 26.9,26.9 26.9,45 30.5,45 30.5,34.1 34.1,34.1 
				34.1,37.7 45,37.7 45,26.9 45,26.9 41.3,26.9 			"/>
			<path id="Shape_2_" class="st0" d="M5.1,23.1h18.2V5H5.1V23.1z M8.7,8.7h10.9v10.9H8.7V8.7z"/>
			<rect id="Rectangle-path_3_" x="12.3" y="12.3" class="st0" width="3.6" height="3.6"/>
			<path id="Shape_3_" class="st0" d="M26.9,5v18.2H45V5H26.9z M41.3,19.5H30.5V8.7h10.9V19.5L41.3,19.5z"/>
			<rect id="Rectangle-path_4_" x="34.1" y="12.3" class="st0" width="3.6" height="3.6"/>
		</g>
	</g>
</g>
</svg>
