<svg xmlns="http://www.w3.org/2000/svg" width="54" height="54" viewBox="0 0 54 54">
  <path fill="#FFF" fill-rule="evenodd" d="M203,59 L180,59 C177.790861,59 176,57.209139 176,55 L176,55 L176,32 L176,9 C176,6.790861 177.790861,5 180,5 L180,5 L203,5 L226,5 C228.209139,5 230,6.790861 230,9 L230,9 L230,32 L230,55 C230,57.209139 228.209139,59 226,59 L226,59 L203,59 Z M188,47 L202,47 L202,33 L188,33 L188,47 Z M190.769231,35.7845304 L199.153846,35.7845304 L199.153846,44.2154696 L190.769231,44.2154696 L190.769231,35.7845304 Z M193,39 L193,42 L196,42 L196,39 L193,39 Z M211,44 L211,47 L214,47 L214,44 L211,44 Z M215,44 L215,47 L218,47 L218,44 L215,44 Z M215.138122,35.7845304 L212.353591,35.7845304 L212.353591,33 L204,33 L204,47 L206.78453,47 L206.78453,38.5690608 L209.569061,38.5690608 L209.569061,41.3535912 L218,41.3535912 L218,33 L215.138122,33 L215.138122,35.7845304 Z M188,31 L202,31 L202,17 L188,17 L188,31 Z M190.769231,19.8618785 L199.153846,19.8618785 L199.153846,28.2928177 L190.769231,28.2928177 L190.769231,19.8618785 Z M193,22 L193,25 L196,25 L196,22 L193,22 Z M204,17 L204,31 L218,31 L218,17 L204,17 Z M215.138122,28.1538462 L206.78453,28.1538462 L206.78453,19.8461538 L215.21547,19.8461538 L215.21547,28.1538462 L215.138122,28.1538462 Z M210,22 L210,25 L213,25 L213,22 L210,22 Z" transform="translate(-176 -5)"/>
</svg>
