<svg version="1" xmlns="http://www.w3.org/2000/svg" width="682.667" height="682.667" viewBox="0 0 512.000000 512.000000"><path d="M237.9 3.4c-.2.2-3.5.6-7.4 1-40.2 3.7-82.2 18.9-116.5 42.4-18.7 12.8-43.6 35.4-53.5 48.7-1.7 2.2-3.8 4.9-4.8 6-2.2 2.4-17.7 25.7-20 30-11.6 21.7-21.8 46.8-24.2 59.7-.2 1.1-.7 2.8-1 3.8-.6 2-.6 2-2.8 13-3.4 17-4.2 25.8-4.2 48 0 20.9 1.3 35.5 4 47 .1.3.5 2.5.9 5 2.6 15.2 12.6 43.9 21.3 61.2 3.8 7.5 6.3 11.8 14.6 25.3 9.8 15.9 37.6 46.5 53.2 58.6 19.5 15.2 38.4 26.6 57.7 34.8 10.1 4.3 27.3 10.6 31.8 11.7.8.1 6.5 1.4 12.5 2.8 12.7 2.9 15.3 3.4 21.5 4.1 2.5.3 7.7 1 11.5 1.4 7.1.9 47.3.7 51.1-.2 1.2-.3 4.5-.8 7.5-1.2 17.9-2.2 43.3-9.1 61.6-16.7 58.9-24.4 108.9-73 134.1-130.3 9.5-21.8 16.6-45.5 18.8-63 .3-2.2.7-4.6.9-5.3 1.9-5.6 2.7-47.6 1.2-61.2-4.9-45.7-22.4-90.2-49.5-126-8-10.5-12.2-15.2-25.1-28-12.2-12.1-31.4-27.8-39.6-32.4-1.6-.9-5.2-3.1-8-4.8-7.7-4.7-20.3-11.3-27.5-14.3-3.6-1.5-7.8-3.3-9.5-4-10.4-4.7-34.9-11.4-51-13.9-5.5-.8-11.6-1.8-13.5-2.2-3.6-.6-45.5-1.5-46.1-1z"/></svg>