<svg xmlns="http://www.w3.org/2000/svg" width="206" height="60" viewBox="0 0 206 60"><g fill="none"><path fill="#000" d="M8.253 60C4.005 60 .667 56.7.667 52.5v-45C.667 3.3 4.005 0 8.253 0h189.655c4.249 0 7.587 3.3 7.587 7.5v45c0 4.05-3.338 7.5-7.587 7.5H8.253z"/><path fill="#A6A6A6" d="M197.908 1.2c3.49 0 6.373 2.85 6.373 6.3v45c0 3.45-2.883 6.3-6.373 6.3H8.253c-3.49 0-6.372-2.85-6.372-6.3v-45c0-3.45 2.883-6.3 6.372-6.3h189.655zm0-1.2H8.253C4.005 0 .667 3.3.667 7.5v45c0 4.2 3.338 7.5 7.586 7.5h189.655c4.249 0 7.587-3.3 7.587-7.5v-45c0-4.05-3.338-7.5-7.587-7.5z"/><path fill="#FFF" d="M48.637 26.435v-7.231c0-.794.275-1.473.828-2.028.554-.555 1.227-.83 2.019-.83.76 0 1.413.27 1.967.804s.843 1.188.88 1.95V32.36c0 .415.093.716.284.907.192.192.492.286.906.286H59.972c.864.036 1.568.327 2.122.882.554.555.813 1.25.777 2.08 0 .726-.26 1.364-.777 1.898-.517.534-1.138.804-1.863.804a93.068 93.068 0 0 1-6.263 0c-1.31-.036-2.474-.534-3.493-1.51-1.02-.97-1.615-2.116-1.786-3.433 0-.171-.01-.337-.026-.493a4.974 4.974 0 0 1-.026-.493v-6.852zm-2.898 5.773v4.109c0 1.665-.554 3.055-1.656 4.16-1.103 1.105-2.47 1.665-4.09 1.665H34.25a2.896 2.896 0 0 1-1.734-.675c-.502-.414-.818-.949-.958-1.613a3.172 3.172 0 0 1 .26-1.872 2.401 2.401 0 0 1 1.345-1.25c.207-.104.424-.172.647-.208.222-.036.44-.052.647-.052.724-.036 1.449-.052 2.174-.052h2.173c.482 0 .818-.088 1.01-.26.191-.17.284-.502.284-.985V27.892c0-.69.197-1.302.596-1.82a2.866 2.866 0 0 1 1.578-1.043c.896-.207 1.698-.036 2.407.519.709.555 1.06 1.286 1.06 2.184v4.476zm-8.54-8.688v3.615s-.016 1.188-.052 3.564c0 1.079-.455 1.883-1.371 2.417-.917.534-1.838.56-2.77.078a2.78 2.78 0 0 1-1.06-.986 2.998 2.998 0 0 1-.44-1.405V16.45c0-.66.18-1.25.543-1.77a2.616 2.616 0 0 1 1.475-1.042c.896-.275 1.724-.14 2.484.415.761.555 1.155 1.302 1.19 2.236v7.231zm8.54-4.316c0 .762-.274 1.432-.828 2.002-.554.57-1.206.856-1.967.856-.792 0-1.465-.275-2.019-.83-.553-.555-.828-1.235-.828-2.028 0-.763.275-1.432.828-2.002.554-.571 1.206-.856 1.967-.856.792 0 1.465.275 2.019.83.554.555.828 1.234.828 2.028zm5.693 22.938c0 .793-.274 1.473-.828 2.028-.554.555-1.206.83-1.967.83-.792 0-1.464-.275-2.018-.83-.554-.555-.828-1.235-.828-2.028 0-.763.274-1.421.828-1.977.554-.555 1.226-.83 2.018-.83.792 0 1.46.27 1.993.805.533.534.802 1.203.802 2.002zM28.607 21.906c-.036-.866-.414-1.571-1.138-2.106-.725-.534-1.501-.7-2.33-.492a2.853 2.853 0 0 0-1.578 1.016c-.399.509-.595 1.12-.595 1.847a86.39 86.39 0 0 0-.026 3.667c.015 1.235.026 2.47.026 3.72 0 .378-.094.664-.285.855-.192.192-.492.286-.906.286h-4.554c-.104 0-.197.01-.285.026a1.385 1.385 0 0 1-.233.026 2.73 2.73 0 0 0-1.708.933 2.698 2.698 0 0 0-.673 1.821c0 .555.13 1.053.388 1.484.26.43.611.767 1.061 1.016h.026s.026.016.078.052c.036 0 .067.01.103.026l.156.078a2.996 2.996 0 0 0 1.138.207c.347.037.71.052 1.087.052h1.087a27.559 27.559 0 0 1 2.07-.026c.689.016 1.382-.01 2.07-.077 1.346-.104 2.511-.675 3.494-1.717.984-1.043 1.491-2.236 1.527-3.59v-9.104z"/><path fill="#F1F1F1" d="M142.222 32.999c-.263 0-.575-.028-.934-.085-.36-.056-.717-.13-1.071-.224a8.822 8.822 0 0 1-.983-.317c-.301-.118-.528-.236-.68-.355l.588-1.293c.21.118.449.231.715.338.266.107.55.202.851.283.302.082.61.148.926.199.316.05.626.076.93.076a4.31 4.31 0 0 0 1.233-.173c.39-.116.71-.323.961-.622.205-.242.288-.534.25-.874a3.178 3.178 0 0 0-.35-1.087 7.222 7.222 0 0 0-.76-1.166 12.657 12.657 0 0 0-2-2.029 5.85 5.85 0 0 0-.87-.591c.106-.226.203-.434.29-.626l.281-.608c.322.169.648.377.979.625.33.248.653.521.97.82.315.299.617.617.903.955.287.338.547.685.781 1.04.234.355.438.71.61 1.065.173.355.3.699.382 1.031.04.186.07.38.088.583.017.203.013.403-.014.6-.026.198-.076.39-.149.58-.073.188-.18.361-.32.52-.52.602-1.243 1-2.168 1.191-.204.05-.428.087-.671.11a8.317 8.317 0 0 1-.768.034zm-6.046-5.106a57.319 57.319 0 0 1 .614 2.19c.058.225.113.449.162.672.05.222.095.436.136.642.041.206.073.393.097.562 0 .068.004.137.013.207.009.07.013.154.013.25 0 .467-.071.924-.215 1.369-.143.445-.34.872-.592 1.28-.252.409-.552.8-.9 1.175s-.727.729-1.136 1.061c-.41.333-.844.641-1.303.926-.46.284-.926.542-1.4.773l-.606-1.183a14.811 14.811 0 0 0 1.782-1.044 9.842 9.842 0 0 0 1.527-1.277c.445-.459.801-.948 1.07-1.466.27-.519.404-1.057.404-1.615 0-.056-.003-.112-.009-.169a7.842 7.842 0 0 0-.127-.858c-.05-.245-.107-.495-.17-.752a23.591 23.591 0 0 0-.203-.752c-.07-.245-.137-.473-.202-.685a22.269 22.269 0 0 0-.175-.553c-.053-.158-.09-.276-.114-.355l1.334-.398zm-7.433 8.2l-1.282 1.233-1.298-1.242 1.28-1.243 1.3 1.251zm-2.366-4.405c.3 0 .628-.008.983-.02a7.523 7.523 0 0 0 1.146-.127c.368-.07.7-.18.996-.33.295-.15.504-.356.627-.621v.008c.094-.186.14-.434.14-.744 0-.264-.04-.563-.122-.896a15.475 15.475 0 0 0-.316-1.09 7.023 7.023 0 0 0-.171-.456l-.198-.478a9.568 9.568 0 0 0-.188-.427c-.062-.13-.11-.234-.145-.313l1.246-.6c.035.08.082.18.14.305a13.604 13.604 0 0 1 .408.963c.074.192.145.392.215.6.153.457.267.882.343 1.277.076.394.114.76.114 1.098 0 .496-.082.927-.246 1.294a3.264 3.264 0 0 1-.838 1.06 3.232 3.232 0 0 1-1.268.639 3.169 3.169 0 0 1-.588.101c-.24.023-.487.04-.742.05-.254.012-.495.02-.724.022-.228.003-.406.004-.535.004h-1.351a.68.68 0 0 1-.536-.245 2.715 2.715 0 0 1-.991-.6 1.953 1.953 0 0 1-.417-.566 2.827 2.827 0 0 1-.21-.6 3.068 3.068 0 0 1-.075-.567c-.006-.18-.01-.335-.01-.465v-.152c.007-.096.014-.348.023-.756a71.67 71.67 0 0 0-.005-2.963 61.583 61.583 0 0 0-.07-2.9 47.925 47.925 0 0 0-.083-1.343c-.032-.417-.072-.76-.119-1.031l1.37-.237c.052.299.096.65.13 1.056.036.406.064.843.084 1.31a71.04 71.04 0 0 1 .066 2.942 113.66 113.66 0 0 1 .013 2.975c-.003.327-.007.575-.013.744v.372c-.006.27.006.509.035.714a.87.87 0 0 0 .281.529c.146.14.354.252.623.334.266.08.592.124.978.13zm5.481 4.421l-1.272 1.234-1.3-1.25 1.282-1.235 1.29 1.251zm-17.134-4.424a23.631 23.631 0 0 0 1.684-.077 9.281 9.281 0 0 0 1.633-.27c.465-.127.86-.295 1.184-.503a3.04 3.04 0 0 0 .82-.77h-1.35c-.299 0-.59-.023-.874-.071a4.446 4.446 0 0 1-.803-.211 3.594 3.594 0 0 1-.689-.339 2.405 2.405 0 0 1-.53-.452.938.938 0 0 1-.264-.376 2.893 2.893 0 0 1-.167-.554 3.388 3.388 0 0 1-.065-.625c-.003-.214.01-.411.04-.592a5.08 5.08 0 0 1 .346-1.14c.155-.35.34-.66.557-.93.246-.31.52-.544.82-.702.302-.158.616-.237.944-.237.72 0 1.378.313 1.974.938.229.243.433.519.615.829.181.31.335.64.46.993a6.737 6.737 0 0 1 .391 2.261c0 .558-.088 1.05-.263 1.475-.176.425-.42.793-.733 1.103-.313.31-.687.566-1.123.77a7.306 7.306 0 0 1-1.44.485 11.56 11.56 0 0 1-1.68.254 20.158 20.158 0 0 1-1.299.063h-.685a.678.678 0 0 1-.32-.076c-1-.16-1.769-.575-2.303-1.242l-.01-.009c-.221-.253-.423-.628-.605-1.124-1.644 1.651-4.104 2.477-7.38 2.477-1.75-.012-3.194-.209-4.335-.592s-1.966-.99-2.475-1.817a3.428 3.428 0 0 1-.434-1.015 4.394 4.394 0 0 1-.084-1.67c.03-.205.068-.398.114-.578.1-.395.205-.73.316-1.006.111-.276.2-.479.264-.609.222.119.427.23.614.334.187.105.389.213.605.326a5.738 5.738 0 0 1-.158.338c-.07.14-.137.303-.201.486a5.78 5.78 0 0 0-.172.592c-.05.21-.074.426-.074.646 0 .231.03.468.088.71.058.242.152.47.28.685.188.293.452.552.795.777.342.226.753.416 1.233.571.48.155 1.023.273 1.632.355.608.082 1.272.123 1.992.123 1.305 0 2.424-.113 3.357-.339.933-.225 1.707-.58 2.32-1.065l-.008.009c.263-.203.493-.423.689-.66.196-.236.364-.481.505-.735.14-.253.26-.508.36-.765.099-.256.187-.508.263-.756.245.062.47.12.675.177.205.057.425.116.659.178l-.08.308-.087.368a3.92 3.92 0 0 0-.097.887c.012.254.053.522.123.803.07.282.205.539.404.77l-.009-.009c.428.518 1.108.793 2.04.825zm3.286-6.513c-.1 0-.225.038-.377.114a1.812 1.812 0 0 0-.461.346 2.57 2.57 0 0 0-.698 1.4v-.01c-.017.09-.029.185-.035.284a1.433 1.433 0 0 0 .083.575.67.67 0 0 0 .145.232h-.008a.96.96 0 0 0 .276.22c.12.068.256.128.408.182a4.073 4.073 0 0 0 1 .199c.153.01.299.016.44.016h.403c.123 0 .265-.001.426-.004.16-.003.337-.013.53-.03a6.082 6.082 0 0 0-.39-1.728 4.556 4.556 0 0 0-.355-.723 3.308 3.308 0 0 0-.44-.575v.009a2.137 2.137 0 0 0-.407-.338 1.14 1.14 0 0 0-.26-.123.889.889 0 0 0-.28-.046zm1.018-4.421l-1.29 1.242-1.299-1.25 1.29-1.243 1.299 1.251zm-15.024 4.108l-1.281 1.234-1.3-1.243 1.282-1.242 1.299 1.25zm3.115.017l-1.272 1.234-1.299-1.251 1.281-1.234 1.29 1.25zm-18.727 8.131a85.231 85.231 0 0 0 .127-2.595c.015-.406.025-.804.03-1.196a67.781 67.781 0 0 0-.184-6.39 50.707 50.707 0 0 0-.263-2.59l1.378-.203c0 .01.003.03.009.054.006.026.012.07.017.136.006.064.017.149.031.253.015.105.03.238.048.402.041.321.076.668.106 1.04.029.371.058.771.087 1.2.03.417.053.824.07 1.221.018.397.033.768.045 1.112.011.394.022.808.03 1.242.01.434.013.893.013 1.378 0 .755-.011 1.548-.035 2.38a63.85 63.85 0 0 1-.131 2.632l-1.378-.076zm-3.712-5.114a57.323 57.323 0 0 1 .614 2.19c.059.225.113.449.162.672.05.222.096.436.136.642.041.206.074.393.097.562 0 .068.004.137.013.207.009.07.013.154.013.25 0 .467-.071.924-.215 1.369-.143.445-.34.872-.592 1.28-.252.409-.551.8-.9 1.175-.348.375-.726.729-1.136 1.061-.41.333-.844.641-1.303.926-.46.284-.926.542-1.4.773l-.605-1.183a14.811 14.811 0 0 0 1.781-1.044 9.842 9.842 0 0 0 1.527-1.277c.445-.459.802-.948 1.07-1.466.27-.519.404-1.057.404-1.615 0-.056-.003-.112-.008-.169a7.842 7.842 0 0 0-.127-.858c-.05-.245-.107-.495-.172-.752a23.593 23.593 0 0 0-.202-.752c-.07-.245-.137-.473-.202-.685a22.273 22.273 0 0 0-.175-.553c-.053-.158-.09-.276-.114-.355l1.334-.398zm.561-3.643l-1.29 1.243-1.298-1.251 1.29-1.243 1.298 1.251z"/><path fill="#FFF" d="M178.405 20.398a55.232 55.232 0 0 1 1.761 4.233c1.145.112 1.89.208 1.903.208.741.066 1.487.162 2.21.254.971.125 1.978.254 2.972.308 1.562.087 2.507-.213 3.052-.97a.923.923 0 0 0-.044-.096c-.52-1.053-2.706-3.288-11.854-3.937zm-5.812-9.07c-2.732 0-5.408 4.142-7 7.967a56.226 56.226 0 0 1 1.903-.154c1.45-2.914 3.234-5.378 5.097-5.378 1.855 0 3.674 2.452 5.178 5.349.683.041 1.335.091 1.956.145-1.66-3.808-4.405-7.929-7.134-7.929zm-17.23 13.099c-.018.037-.023.07-.036.108.554.687 1.477.949 2.968.866.99-.054 1.992-.183 2.959-.308.723-.092 1.473-.188 2.21-.254.017-.004.691-.088 1.738-.192a52.879 52.879 0 0 1 1.682-4.22c-9.01.695-11.065 2.943-11.522 4zm21.396-5.365c-1.335-2.518-2.817-4.47-4.166-4.47-1.353 0-2.799 1.964-4.09 4.486a86.315 86.315 0 0 1 4.33-.104h.049c1.393 0 2.68.034 3.877.088zm-3.877 1.157h-.045c-1.836 0-3.478.05-4.95.141a55.776 55.776 0 0 0-1.709 4.196c1.846-.17 4.352-.354 6.597-.354 2.174 0 4.592.17 6.415.337a57.189 57.189 0 0 0-1.788-4.204 82.389 82.389 0 0 0-4.52-.116zm-18.748 3.746c.75-1.732 3.278-3.717 10.47-4.566.989-2.464 3.957-8.899 7.99-8.899 4.023 0 7.098 6.406 8.127 8.857 7.271.808 9.902 2.756 10.74 4.454.35.712.315 1.253.289 1.432-.027.387-.342 4.224-1.89 9.29-1.415 4.653-3.771 9.843-5.368 11.816-1.251 1.54-3.612 3.114-11.655 3.114-8.038 0-10.399-1.574-11.65-3.114-1.592-1.964-3.952-7.155-5.376-11.812-1.54-5.061-1.855-8.895-1.886-9.294-.027-.167-.058-.641.209-1.278z"/></g></svg>