<svg width="20" height="21" viewBox="0 0 20 21" xmlns="http://www.w3.org/2000/svg"><title>Circle-Mark</title><path d="M10 .25c1.38 0 2.679.26 3.896.781A10.035 10.035 0 0 1 17.08 3.17a10.035 10.035 0 0 1 2.139 3.184A9.801 9.801 0 0 1 20 10.25c0 1.38-.26 2.679-.781 3.896a10.035 10.035 0 0 1-2.139 3.184 10.035 10.035 0 0 1-3.184 2.139A9.801 9.801 0 0 1 10 20.25c-1.38 0-2.679-.26-3.896-.781A10.035 10.035 0 0 1 2.92 17.33 10.035 10.035 0 0 1 .78 14.146 9.801 9.801 0 0 1 0 10.25c0-1.38.26-2.679.781-3.896A10.035 10.035 0 0 1 2.92 3.17 10.035 10.035 0 0 1 6.104 1.03 9.801 9.801 0 0 1 10 .25zm0 18.77a8.44 8.44 0 0 0 3.408-.694 8.83 8.83 0 0 0 2.774-1.885 9.035 9.035 0 0 0 1.875-2.783 8.44 8.44 0 0 0 .693-3.408 8.44 8.44 0 0 0-.693-3.408 8.914 8.914 0 0 0-1.875-2.774 8.914 8.914 0 0 0-2.774-1.875A8.44 8.44 0 0 0 10 1.5a8.44 8.44 0 0 0-3.408.693 8.914 8.914 0 0 0-2.774 1.875 8.914 8.914 0 0 0-1.875 2.774 8.44 8.44 0 0 0-.693 3.408c0 1.21.231 2.347.693 3.408a9.035 9.035 0 0 0 1.875 2.783 8.83 8.83 0 0 0 2.774 1.885A8.44 8.44 0 0 0 10 19.02zm3.984-12.422c.13-.13.28-.196.45-.196.169 0 .319.065.449.196a.596.596 0 0 1 .176.44.596.596 0 0 1-.176.439l-6.23 6.27-.079.077a.567.567 0 0 1-.44.196.567.567 0 0 1-.439-.196L4.59 10.738a.596.596 0 0 1-.176-.44c0-.175.059-.321.176-.439a.617.617 0 0 1 .898 0l2.637 2.637 5.86-5.898z" fill="#FFF" fill-rule="evenodd"/></svg>