<svg xmlns="http://www.w3.org/2000/svg" width="206" height="60" viewBox="0 0 206 60"><defs><linearGradient id="a" x1="91.536%" x2="-37.559%" y1="37.788%" y2="55.94%"><stop offset="0%" stop-color="#00A0FF"/><stop offset=".657%" stop-color="#00A1FF"/><stop offset="26.01%" stop-color="#00BEFF"/><stop offset="51.22%" stop-color="#00D2FF"/><stop offset="76.04%" stop-color="#00DFFF"/><stop offset="100%" stop-color="#00E3FF"/></linearGradient><linearGradient id="b" x1="107.728%" x2="-130.665%" y1="49.428%" y2="49.428%"><stop offset="0%" stop-color="#FFE000"/><stop offset="40.87%" stop-color="#FFBD00"/><stop offset="77.54%" stop-color="#FFA500"/><stop offset="100%" stop-color="#FF9C00"/></linearGradient><linearGradient id="c" x1="71.674%" x2="-9.496%" y1="17.815%" y2="194.393%"><stop offset="0%" stop-color="#FF3A44"/><stop offset="100%" stop-color="#C31162"/></linearGradient><linearGradient id="d" x1="9.531%" x2="45.441%" y1="-54.527%" y2="24.69%"><stop offset="0%" stop-color="#32A071"/><stop offset="6.85%" stop-color="#2DA771"/><stop offset="47.62%" stop-color="#15CF74"/><stop offset="80.09%" stop-color="#06E775"/><stop offset="100%" stop-color="#00F076"/></linearGradient></defs><g fill="none"><path fill="#000" d="M197.728 60H7.605C3.346 60 0 56.7 0 52.5v-45C0 3.3 3.346 0 7.605 0h190.123c4.26 0 7.605 3.3 7.605 7.5v45c0 4.05-3.346 7.5-7.605 7.5z"/><path fill="#A6A6A6" d="M197.728 1.2c3.499 0 6.389 2.85 6.389 6.3v45c0 3.45-2.89 6.3-6.389 6.3H7.605c-3.498 0-6.388-2.85-6.388-6.3v-45c0-3.45 2.89-6.3 6.388-6.3h190.123zm0-1.2H7.605C3.346 0 0 3.3 0 7.5v45C0 56.7 3.346 60 7.605 60h190.123c4.26 0 7.605-3.3 7.605-7.5v-45c0-4.05-3.346-7.5-7.605-7.5z"/><g fill="#FFF" stroke="#FFF" stroke-width=".733"><path d="M72.094 15.3c0 1.2-.304 2.25-1.064 3-.913.9-1.978 1.35-3.347 1.35-1.368 0-2.433-.45-3.346-1.35-.912-.9-1.369-1.95-1.369-3.3 0-1.35.457-2.4 1.37-3.3.912-.9 1.977-1.35 3.345-1.35.609 0 1.217.15 1.826.45.608.3 1.064.6 1.369 1.05l-.761.75c-.608-.75-1.369-1.05-2.434-1.05-.912 0-1.825.3-2.433 1.05-.76.6-1.065 1.5-1.065 2.55 0 1.05.304 1.95 1.065 2.55.76.6 1.52 1.05 2.433 1.05 1.065 0 1.826-.3 2.586-1.05.456-.45.76-1.05.76-1.8h-3.346v-1.05h4.411v.45zM79.091 11.55h-4.107v2.85h3.803v1.05h-3.803v2.85h4.107v1.2h-5.324v-9h5.324zM84.11 19.5h-1.217v-7.95h-2.585V10.5h6.388v1.05H84.11zM91.107 19.5v-9h1.216v9zM97.495 19.5h-1.217v-7.95h-2.586V10.5h6.236v1.05h-2.585v7.95zM111.944 18.3c-.912.9-1.977 1.35-3.346 1.35s-2.434-.45-3.346-1.35c-.913-.9-1.369-1.95-1.369-3.3 0-1.35.456-2.4 1.369-3.3.912-.9 1.977-1.35 3.346-1.35s2.434.45 3.346 1.35c.913.9 1.37 1.95 1.37 3.3 0 1.35-.457 2.4-1.37 3.3zm-5.78-.75c.609.6 1.521 1.05 2.434 1.05.913 0 1.825-.3 2.434-1.05.608-.6 1.064-1.5 1.064-2.55 0-1.05-.304-1.95-1.064-2.55-.609-.6-1.521-1.05-2.434-1.05-.913 0-1.825.3-2.434 1.05-.608.6-1.064 1.5-1.064 2.55 0 1.05.304 1.95 1.064 2.55zM114.986 19.5v-9h1.369l4.411 7.05V10.5h1.217v9h-1.217l-4.715-7.35v7.35z"/></g><path fill="#FFF" d="M103.58 32.7c-3.651 0-6.541 2.7-6.541 6.45 0 3.6 2.89 6.45 6.54 6.45s6.54-2.7 6.54-6.45c0-3.9-2.89-6.45-6.54-6.45zm0 10.2c-1.978 0-3.651-1.65-3.651-3.9s1.673-3.9 3.65-3.9c1.978 0 3.65 1.5 3.65 3.9 0 2.25-1.672 3.9-3.65 3.9zM89.433 32.7c-3.65 0-6.54 2.7-6.54 6.45 0 3.6 2.89 6.45 6.54 6.45s6.54-2.7 6.54-6.45c0-3.9-2.89-6.45-6.54-6.45zm0 10.2c-1.977 0-3.65-1.65-3.65-3.9s1.673-3.9 3.65-3.9c1.977 0 3.65 1.5 3.65 3.9 0 2.25-1.673 3.9-3.65 3.9zm-16.883-8.25v2.7h6.54c-.152 1.5-.76 2.7-1.52 3.45-.913.9-2.434 1.95-5.02 1.95-4.107 0-7.149-3.15-7.149-7.2 0-4.05 3.195-7.2 7.15-7.2 2.128 0 3.802.9 5.018 1.95l1.978-1.95c-1.673-1.5-3.803-2.7-6.845-2.7-5.475 0-10.19 4.5-10.19 9.9s4.715 9.9 10.19 9.9c3.042 0 5.172-.9 6.997-2.85 1.825-1.8 2.433-4.35 2.433-6.3 0-.6 0-1.2-.152-1.65h-9.43zm69.053 2.1c-.608-1.5-2.13-4.05-5.476-4.05s-6.084 2.55-6.084 6.45c0 3.6 2.738 6.45 6.389 6.45 2.89 0 4.715-1.8 5.323-2.85l-2.13-1.5c-.76 1.05-1.672 1.8-3.193 1.8-1.521 0-2.434-.6-3.194-1.95l8.67-3.6-.305-.75zm-8.822 2.1c0-2.4 1.978-3.75 3.346-3.75 1.065 0 2.13.6 2.434 1.35l-5.78 2.4zM125.634 45h2.89V26.25h-2.89V45zm-4.563-10.95c-.76-.75-1.978-1.5-3.499-1.5-3.194 0-6.236 2.85-6.236 6.45s2.89 6.3 6.236 6.3c1.521 0 2.738-.75 3.347-1.5h.152v.9c0 2.4-1.37 3.75-3.499 3.75-1.673 0-2.89-1.2-3.194-2.25l-2.433 1.05c.76 1.65 2.585 3.75 5.78 3.75 3.346 0 6.083-1.95 6.083-6.6V33h-2.737v1.05zm-3.347 8.85c-1.977 0-3.65-1.65-3.65-3.9s1.673-3.9 3.65-3.9c1.978 0 3.499 1.65 3.499 3.9s-1.521 3.9-3.499 3.9zm37.113-16.65h-6.845V45h2.89v-7.05h3.955c3.194 0 6.236-2.25 6.236-5.85 0-3.6-3.042-5.85-6.236-5.85zm.152 9h-4.107V28.8h4.107c2.129 0 3.346 1.8 3.346 3.15-.152 1.65-1.37 3.3-3.346 3.3zm17.491-2.7c-2.13 0-4.259.9-5.02 2.85l2.586 1.05c.609-1.05 1.521-1.35 2.586-1.35 1.521 0 2.89.9 3.042 2.4v.15c-.456-.3-1.673-.75-2.89-.75-2.738 0-5.475 1.5-5.475 4.2 0 2.55 2.281 4.2 4.715 4.2 1.977 0 2.89-.9 3.65-1.8h.152V45h2.738v-7.2c-.304-3.3-2.89-5.25-6.084-5.25zm-.304 10.35c-.913 0-2.282-.45-2.282-1.65 0-1.5 1.673-1.95 3.042-1.95 1.217 0 1.825.3 2.586.6-.304 1.8-1.825 3-3.346 3zm15.97-9.9l-3.194 8.1h-.152l-3.346-8.1h-3.042l5.02 11.4-2.89 6.3h2.89l7.756-17.7h-3.042zm-25.552 12h2.89V26.25h-2.89V45z"/><path fill="url(#a)" d="M2.13.75c-.457.45-.761 1.2-.761 2.1V36c0 .9.304 1.65.76 2.1l.152.15 18.86-18.6v-.3L2.13.75z" transform="translate(13.689 10.5)"/><path fill="url(#b)" d="M27.378 25.95l-6.236-6.15V19.35l6.236-6.15.152.15 7.453 4.2c2.13 1.2 2.13 3.15 0 4.35l-7.605 4.05z" transform="translate(13.689 10.5)"/><path fill="url(#c)" d="M27.53 25.8l-6.388-6.3L2.129 38.25c.76.75 1.826.75 3.194.15L27.53 25.8" transform="translate(13.689 10.5)"/><path fill="url(#d)" d="M27.53 13.2L5.323.75C3.955 0 2.89.15 2.13.9l19.013 18.6 6.388-6.3z" transform="translate(13.689 10.5)"/><g fill="#000"><path d="M41.067 36.15l-22.055 12.3c-1.216.75-2.281.6-3.042 0l-.152.15.152.15c.761.6 1.826.75 3.042 0l22.055-12.6z" opacity=".2"/><path d="M15.818 48.45c-.456-.45-.608-1.2-.608-2.1v.15c0 .9.304 1.65.76 2.1v-.15h-.152z" opacity=".12"/></g><path fill="#000" d="M48.672 31.95l-7.605 4.2.152.15 7.453-4.2c1.064-.6 1.52-1.35 1.52-2.1 0 .75-.608 1.35-1.52 1.95z" opacity=".12"/><path fill="#FFF" d="M19.012 11.4l29.66 16.65c.912.6 1.52 1.2 1.52 1.95 0-.75-.456-1.5-1.52-2.1l-29.66-16.65c-2.129-1.2-3.802-.15-3.802 2.25v.15c0-2.4 1.673-3.45 3.802-2.25z" opacity=".25"/></g></svg>