<svg width="20" height="20" viewBox="0 0 20 20" xmlns="http://www.w3.org/2000/svg"><title>People</title><path d="M14.57 16.312l.528.293c.351.195.527.449.527.76v1.581c0 .3-.104.55-.313.752a1.03 1.03 0 0 1-.742.302H1.055c-.287 0-.534-.1-.742-.302A1.003 1.003 0 0 1 0 18.946v-1.58c0-.286.176-.533.527-.742l.528-.312 4.043-2.185c-.743-.586-1.257-1.366-1.543-2.342-.287-.975-.43-1.75-.43-2.322V6.83c0-.442.137-.881.41-1.317.274-.436.632-.83 1.074-1.18a5.826 5.826 0 0 1 1.514-.859 4.667 4.667 0 0 1 1.709-.332c.586 0 1.159.111 1.719.332.56.221 1.058.507 1.494.859.436.35.788.744 1.055 1.18.267.436.4.875.4 1.317v2.634c0 .638-.127 1.431-.38 2.38-.255.95-.746 1.718-1.475 2.303l3.925 2.166zm-.195 2.44v-1.113a.521.521 0 0 0-.137-.098l-.156-.078a.095.095 0 0 1-.049-.02.639.639 0 0 0-.068-.038l-3.926-2.166a1.32 1.32 0 0 1-.45-.42 1.15 1.15 0 0 1-.194-.575c-.027-.208.003-.41.087-.605.085-.195.212-.358.381-.488.534-.416.899-1.011 1.094-1.785.195-.774.293-1.408.293-1.903V6.83c0-.455-.342-.975-1.025-1.56a3.565 3.565 0 0 0-2.393-.879c-.885 0-1.683.293-2.393.878-.71.586-1.064 1.106-1.064 1.561v2.634c0 .495.117 1.129.352 1.903.234.774.618 1.369 1.152 1.785.156.13.277.293.361.488.085.195.114.397.088.605a1.15 1.15 0 0 1-.195.576 1.153 1.153 0 0 1-.45.4l-4.042 2.204a.087.087 0 0 0-.04.01.153.153 0 0 0-.038.03.541.541 0 0 0-.167.077l-.146.098v1.112h13.125zm4.57-5.542l.528.292c.351.196.527.45.527.761v1.561c0 .3-.104.55-.313.752a1.03 1.03 0 0 1-.742.302h-2.07a7.15 7.15 0 0 0-.244-.722 1.268 1.268 0 0 0-.4-.527h2.519v-1.112a5.604 5.604 0 0 0-.137-.088.545.545 0 0 0-.156-.068.123.123 0 0 0-.049-.03.536.536 0 0 1-.068-.029l-3.985-2.165a1.32 1.32 0 0 1-.449-.42 1.15 1.15 0 0 1-.195-.576c-.026-.208.003-.41.088-.604.084-.196.211-.358.38-.488.535-.43.909-1.031 1.124-1.805.215-.774.322-1.402.322-1.883V3.727c0-.468-.352-.995-1.055-1.58a3.677 3.677 0 0 0-2.422-.879 3.976 3.976 0 0 0-2.383.8 3.07 3.07 0 0 0-.78-.136c-.274-.013-.541-.026-.801-.04C8.639 1.36 9.225.912 9.94.547A4.815 4.815 0 0 1 12.148 0c.586 0 1.163.114 1.729.341a6.045 6.045 0 0 1 1.514.869c.442.351.8.748 1.074 1.19.273.442.41.885.41 1.327V6.36c0 .624-.137 1.415-.41 2.37-.274.957-.775 1.721-1.504 2.293l3.984 2.186z" fill="#666" fill-rule="evenodd"/></svg>