<svg xmlns="http://www.w3.org/2000/svg" width="20" height="20" viewBox="0 0 20 20"><g fill="none" fill-rule="evenodd"><path fill="#FFF" d="M0 0h20v20H0z"/><path fill="#666" d="M14.375 0c.52 0 .964.182 1.328.547.365.364.547.807.547 1.328v16.25c0 .52-.182.964-.547 1.328a1.808 1.808 0 0 1-1.328.547h-7.5c-.52 0-.964-.182-1.328-.547A1.808 1.808 0 0 1 5 18.125V1.875c0-.52.182-.964.547-1.328A1.808 1.808 0 0 1 6.875 0h7.5zM15 18.125V1.875a.6.6 0 0 0-.186-.44.6.6 0 0 0-.439-.185h-7.5a.6.6 0 0 0-.44.186.6.6 0 0 0-.185.439v16.25a.6.6 0 0 0 .186.44.6.6 0 0 0 .439.185h7.5a.6.6 0 0 0 .44-.186.6.6 0 0 0 .185-.439zm-4.375-2.5c.352 0 .648.124.889.371.24.247.361.54.361.879 0 .339-.12.632-.361.879s-.537.371-.889.371c-.339 0-.632-.124-.879-.371a1.201 1.201 0 0 1-.371-.879c0-.339.124-.632.371-.879s.54-.371.879-.371zm1.25-13.75a.6.6 0 0 1 .44.186.6.6 0 0 1 .185.439.6.6 0 0 1-.186.44.6.6 0 0 1-.439.185h-2.5a.6.6 0 0 1-.44-.186.6.6 0 0 1-.185-.439.6.6 0 0 1 .186-.44.6.6 0 0 1 .439-.185h2.5z"/></g></svg>